<?xml version="1.0" encoding="UTF-8"?>
<svg id="Layer_1" data-name="Layer 1" xmlns="http://www.w3.org/2000/svg" version="1.1" viewBox="0 0 128 128">
  <defs>
    <style>
      .cls-1 {
        fill: #14162c;
      }

      .cls-1, .cls-2, .cls-3, .cls-4, .cls-5, .cls-6, .cls-7, .cls-8, .cls-9, .cls-10, .cls-11, .cls-12, .cls-13, .cls-14, .cls-15, .cls-16, .cls-17, .cls-18, .cls-19 {
        stroke-width: 0px;
      }

      .cls-2 {
        fill: #1e1615;
      }

      .cls-3 {
        fill: #274590;
      }

      .cls-4 {
        fill: #121010;
      }

      .cls-5 {
        fill: #f6e331;
      }

      .cls-6 {
        fill: #d6433e;
      }

      .cls-7 {
        fill: #281113;
      }

      .cls-8 {
        fill: #232424;
      }

      .cls-9 {
        fill: #264692;
      }

      .cls-10 {
        fill: #fffffd;
      }

      .cls-11 {
        fill: #878860;
      }

      .cls-12 {
        fill: #d4433d;
      }

      .cls-13 {
        fill: #d3423d;
      }

      .cls-14 {
        fill: #fff;
      }

      .cls-15 {
        fill: #254694;
      }

      .cls-16 {
        fill: #234694;
      }

      .cls-17 {
        fill: #d6433f;
      }

      .cls-18 {
        fill: #d1403c;
      }

      .cls-19 {
        fill: #244792;
      }
    </style>
  </defs>
  <path class="cls-4" d="M1.3,125.4c-.3-1.4-.3-21.8-.2-28.7,0-7.6.3-15.2.3-22.8s-.3-8.2-.3-12.4c0-13.4.2-27,.3-40.6,0-6.1.2-12.3.3-18.4C1.6.5,1.8.3,3.6.3c5.8,0,11.7.1,17.5.1s15.3.1,22.9.1,15.9,0,23.9.1c5.4.1,10.9.6,16.2.6,7.4.1,14.7.7,22.2.8,4.1,0,8.2-.1,12.3,0,2.6,0,5.2.2,7.8.3,1.1,0,1.3,6.7,1.3,7.9-.3,6.3-.5,5.7-.6,11.9,0,6.5,0,13,0,19.5,0,6.3-.2,12.4-.2,18.7s0,6.1,0,9.2c-.2,6.1-.5,12.3-.7,18.5,0,3.9,0,7.9,0,11.9,0,7.3.6,24.5-.2,24.7-1.3.2-12.6.6-17.3.7-6.8.1-13.7.2-20.4.5-2.7.1-5.4.5-8.1.6-3.6.1-7.3.2-10.9.2-6.1-.1-12-.6-18.1-.6-5.2-.1-10.3.1-15.4.2-3.9,0-7.8.1-11.8.1-3.5.1-7,.3-10.5.2-4.2-.3-11.9.7-12-1.2Z"/>
  <g id="iegsYy.tif">
    <path class="cls-10" d="M12.2,107.3c.6-.7,1.2-1.5,1.8-2.1,4.8-4,9.7-8,14.6-12,3.4-2.8,6.8-5.6,10.2-8.1,1.2-.9,2.5-1.5,3.8-2,.9-.4,1.2.2,1.7,1.1,1.7,3.6,3.3,7.2,5.3,10.7,1.7,3,3.3,3.7,5.8,2.2,5.2-3.2,10.3-6.3,15.5-9.5,4.4-2.7,8.7-5.5,13.2-7.9,4.6-2.5,9.3-4.5,13.9-6.7.4-.1.6-.2,1-.3,1.7-.7,3.5-.2,4.8,1.2,3.9,4.2,8.2,7.9,12.2,12.1,1.8,2,3.3,4.3,4.6,6.7.4,1.2.7,2.5.7,3.7.3,3.1.4,6.2.4,9.3-1.9-1-3.7-2.6-5-4.6-1.2-1.9-2.5-3.9-3.8-5.7-.8-1.5-2.3-2.4-3.8-1.9-1.5.4-2.6,2-2.7,4-.2,1.5-.3,3.1-.5,4.6,0,.9-.4,1.6-.9,2.1-.7.2-1.5.1-2.1-.5-.6-1-1.1-2-1.1-3.2-.2-2.2-.7-4.4-1.6-6.3-1.5-2.7-4.1-2.7-5.3.3-.8,2.2-1.4,4.6-1.9,7-.3.9-.4,1.7-.6,2.6-.3,1.2-.9,2.2-1.9,2.1s-2.2-.5-2.3-2.4c0-2-.5-4.2-.5-6.2s-.5-4.3-1.5-6.2c-1.1-1.6-3-2-4.4-1-3.5,2.4-7,4.7-10.4,7.3-5.6,4.3-11.1,8.5-17.7,10.3-.6.2-1.2.3-1.8.3-2,.2-2.5-.3-3.2-2.6-.6-1.7-1.3-3.4-2.3-4.9-1.1-1.8-3.2-2.5-4.9-1.4-3.6,1.7-6.8,4.4-9.4,7.9-.5.6-1.3.9-2,.7-.8-.4-1.1-1.5-.8-2.5q0-.1,0-.1c0-.4.3-.7.4-1.1.6-.7.6-2,0-2.8-.6-1.1-1.8-1.4-2.7-.9-1,.6-1.9,1.3-2.9,2-2.1,1.6-4.3,3.2-6.4,4.7-1.2,1.1-2.9,1.4-4.3.9-.5-.4-.9-.6-1.2-1Z"/>
    <path class="cls-12" d="M122.8,25.7c-.2,2.7-.4,5.2-.4,7.9,0,3.1,0,6.2,0,9.3s-.3,4.8-.4,7.3c-.5.6-1.2,1.1-1.9,1.1-10,2.9-20,5.7-30,8.6-1.4.5-2.9.9-4.4,1-.6-.2-1.1-.6-1.5-1.3-1.4-2-1.2-2.8.7-4,2.5-1.6,5.2-2.9,7.8-4.3-3,1.2-5.9,2.6-8.9,3.7-1.8.7-2.7.2-3.5-2,.9-1.6,2.3-2,3.6-2.9,8.8-5.8,17.7-11.1,26.5-16.9,3.8-2.5,7.7-4.7,11.4-7.4.2-.2.6-.3.9-.1Z"/>
    <path class="cls-16" d="M22.8,5.6c.7,0,1.4-.1,2.1-.1s1.3.2,2,.2c3.4,0,6.8,0,10.2.1,8.2.1,16.6.3,24.8.4,1,0,4.3.2,3,.4.4.4.5,1.1.5,1.7,0,4.4.2,8.9,0,13.3-.3,1-.9,1.6-1.8,1.7-3,1-6,2.4-8.8,4.2-.8.6-1.8.6-2.7,0-1.8-1.5-3.9-2.8-6-3.6-2.4-1.2-2.5-2.2-.4-4.1,1.5-1.3,3.2-2.1,4.1-4.3,0-.1,0-.3,0-.4h-.4c-.2.1-.4.3-.4.4-1.1,1.7-2.5,3.2-3.9,4.6-.8,1.1-2.1,1.2-3.1.3-.5-.5-1.3-.6-1.8,0-.4,3.5-.4,3.6-2.5,3.9-1.9-1.5-3.3-3.7-4.9-5.7-.4-.5-.9-1.1-1.4-1.5-2.4-3.4-5.1-6.3-7.7-9.4-.4-.7-1.1-1.1-1-2.1Z"/>
    <path class="cls-5" d="M80.5,53c1.4,2.5,1.5,2.5,3.7,1.5,2.8-1.3,5.5-2.5,8.3-3.6.5-.2,1.1-.3,1.6-.3l.2.5-11,6.1,2.2,3.5c0,0,.2.1.3.2.8,2.6,2.5,2.6,4.4,2.2,3-.4,5.9-.5,8.9-.9.7-.1,1.4-.2,1.8.9-.4,1.3-1.2,1.4-2.1,1.6-2.8.7-5.6,1.8-8.5,2.5-1.1,0-2.1,1.2-2.1,2.6-1.8,1.1-3.5,2.2-5.3,3.3-4.6,2.4-9,4.8-13.4,7.5s-10.8,6.7-16.1,10.1c-.2.1-.4.1-.6.2-1.4-2.5-2.7-5-4.2-7.5-.9-1.3-1.8-2.6-2.8-3.6-1-1-2.3-1.3-3.4-.7-.6-1.6-1.5-1.7-2.8-1.5-1.6.3-3.1,1.1-4.7.3-.4-.6,0-1,.4-1.4.3-.3.5-.5.9-.6,4.1-2.1,7.6-5.6,11.6-8.1,4.1-2.6,4.5-2.8,5.9,2.9.6,2.6,1.1,5.1,1.4,7.8.4,3,1.2,3.4,3.7,2.6,2-.7,4-1.7,5.9-2.9,3.8-2.2,7.4-5,11.3-6.6s.9-1.7.4-2.7c-1.5-2.8-2.9-5.7-4.2-8.6-.3-.5-.5-1.2-.7-1.8-.3-.7,0-1.6.4-2,2.2-2,4.6-3.6,7.1-4.9.2-.1.4-.1.7,0,.6,0,1.1.7,1.3,1.6Z"/>
    <path class="cls-15" d="M4.8,48.8c-.2-.9-.3-1.7-.4-2.6.2-5.7.4-11.3.5-17,0-1.6,0-3.1,0-4.7,0-.7.2-1.5.3-2.1.4-.2.9-.1,1.3.2,2.4,1.6,4.9,2.7,6.9,5,.9,2.4,2.7,3.1,4.6,3.5.8.1,1.6.3,2.3.6,2.2,1.3,4.4,2.8,6.4,4.4.6,1,.2,2.2.8,3.3.7-.6,1.6-1.1,2.5-1.1,1.7,1,3.6,1.7,4.8,3.5-1.1,2.4-2.7,4.3-4.7,5.2-1.1-.4-2.3-.9-3.3-1.5.9,1.1,1.9,1.2,2.6,1.9,0,1.7-1.3,2.4-2,3.5-.7,1.5-1.8,2.7-3,3.5-2.3-.2-4.6-.9-6.8-1.6-3.8-1.1-7.6-2.1-11.4-3.4-.5-.1-1.1-.4-1.4-.9Z"/>
    <path class="cls-6" d="M13.2,27.6l-8.1-5.2c-.2-.5-.3-1.2-.3-1.8V5.4c.2-.1.4-.2.6-.2,5,0,9.9-.1,14.9-.1.8.1,1.7.2,2.5.5,2.6,3.2,5.4,6.4,8,9.6.4.4.6.9,1,1.4,0,.9.6,1.5,1.2,1.5l4.8,5.8c0,.2,0,.4,0,.6-.2.2-.4.4-.6.5-2.5.6-4.7,2.2-7.3,2.9-.7-.1-1.4.1-2,.4-.3.1-.6.1-1,.2-.4,0-1,.1-1.4.2-.3.1-.5.1-.8.1s-.4-.1-.5-.2c-2.4-2.7-5-2.7-7.8-1.3-1,.4-2.1,1.2-3.2.2Z"/>
    <path class="cls-9" d="M87.9,69.7l-.6-2.4,13.2-4v-.6c0,0-14,1.3-14,1.3l-1.1-3.4,36.6-10.4c0,3,0,5.9,0,8.9,0,3.5-.3,7.2-.4,10.7-.5.5-1.1.9-1.8.7h-10.5c-.7,0-1.3-.2-1.9-.6-1.1-.6-2.1-1.5-3-2.5-.5-.9-1.4-1.3-2.3-1.3-3.9,0-7.8,1-11.5,2.8-.7.3-1.6.5-2.5.7Z"/>
    <path class="cls-19" d="M80.5,53l-1.6-1.4c.6-1,1.4-1.8,2.4-2.2,6.8-4.3,13.2-9.4,20-13.8,3.6-2.1,7.4-4.1,11.1-5.6.7-.1,1.2-.5,1.7-1.2-1.5-2.5-3.3-4.6-5.4-6.2-2.1-1.8-4.5-3-7-3.6-1.1,0-2-.5-2.7-1.4v-.2c1.8-3.3,3.9-7.7,6.8-9.7,4.1.1,8.2.3,12.3.4,1.4.1,2.8.2,4.3.3.6,5.8.9,11.6.7,17.3-1.4,1.1-2.8,2.1-4.3,3.1-9.6,6.1-19.3,12.3-28.9,18.4-3.2,1.8-6.2,3.9-9.2,5.8Z"/>
    <path class="cls-13" d="M105.6,7.5c-2.2,2.7-4.5,7.1-6.7,9.7-.4.7-1.2,1.1-1.9.6-3.7-.6-7.5-.9-11.1-.5-3.1,0-6.1,1.2-9.1,1.8-3.5.7-6.9,1.7-10.3,3.1-.4.2-1,.5-1.3-.1,0-5.1,0-10.4,0-15.5.4-.1.9-.1,1.3,0,4,.3,8.1.2,12.1.5,3.8.2,7.5,0,11.3.2,1.8.1,3.5-.2,5.2-.1,3.5.1,7-.2,10.6.2Z"/>
    <path class="cls-12" d="M4.8,48.8l19.7,5.7c0,1.6-1.1,2.7-1.8,3.9-1.7,2.9-3.1,6-4.4,9.1-.3,1.2-1,2-1.8,2.5-3.3.3-6.8.1-10.1.1-.6.1-1.2-.2-1.7-.7v-20.4Z"/>
    <path class="cls-15" d="M4.9,69.3h12.4c.7,1,.4,2.1.2,3.2-.6,3-1,6.2-1.1,9.3,0,2.6.4,5.1,1.4,7.5-.2.9-.8,1.4-1.5,1.5-3.2,1.2-6.4,2.5-9.6,3.7-.7.4-1.4.4-2.1.1,0-6.1,0-12.3,0-18.4,0-2.4.2-4.6.3-7Z"/>
    <path class="cls-12" d="M4.5,94.6l13.1-5c.5-.6,1.1-1,1.9-1.1,4.4-2,8.9-3.5,13.2-5.2.6-.4,1.3-.4,1.9,0-1.6,1.5-3.2,3-4.8,4.4-3.4,3-6.8,6.1-10.3,9.1-3.5,3.1-7.1,6.1-10.5,9.2-1.5,1.4-2.9,2.9-4.5,4.6v-15.9h0Z"/>
    <path class="cls-18" d="M107.2,69.9h14.2c0,2,.3,4.1.3,6.2s0,5-.2,7.5c0,.4-.2.7-.3,1.1-1.2-1.4-2.3-2.8-3.5-3.9-2.6-2.5-5.4-4.8-7.9-7.4-1-1.1-1.8-2.4-2.6-3.5Z"/>
    <path class="cls-3" d="M34.7,83.4c-2.2.7-4.4,1.4-6.6,2.2-2.9,1.1-5.8,2.2-8.7,3.3,0-.9.3-1.7.9-2,4.1-3.2,8.4-6.3,12.8-9.1.4-.2.8-.2,1.1,0l7.5-1.3.4,2.5-7.4,4.4Z"/>
    <path class="cls-2" d="M34.3,77.8c-2.1,1.4-4.2,2.7-6.2,4.1-2.3,1.6-4.6,3.2-6.8,4.9-.6.6-1.2,1.3-1.7,2.1l-1.9.6c-2.5-3.5-1.8-7.8-1.6-11.9.2-2.9.8-5.7,1.1-8.6,1.2-2.7,2.4-5.3,3.6-7.9,1.1-2.4,2.5-4.5,3.7-6.8l4.8-6.7c0-.5.3-.9.7-.9h0l4.6-5c.4-.9.9-1.5,1.5-1.8.7-.5,1.4-1.2,2-1.8,1.3-.9,1.8-2.8,1.4-4.5-.3-1.7-.2-3.5.2-5.2.3-2-.3-2.6-1.8-1.8-2.1,1-4.2,1.6-6.3,2.7-1.6.6-3.2,1-4.9,1.1-1.4.2-2-.6-1.8-2l.7-.2c.4.1.9,0,1.3-.1l1-.2c.5,0,1.1-.1,1.6-.2l7.8-3.1h.2c0,.1,0-.1,0-.1l.2-.4,2.4-.9-.7-2.6c.5-1.1,1.7-1.4,2.5-.9s.3.2.4.4c.5.7,1.4.9,2,.2q0-.1.2-.2c1.6-1.7,3.2-3.4,4.7-5.1,0-.1,0-.2.3-.2h.7c.3,0,.4.2.4.5h0c-1.1,2.9-3.2,4-5.1,5.6-.4.3-.6.7-1.2,1.4.9.5,1.5,1,2.2,1.4,2,1.3,4,2.6,6.1,3.9.4.3,1,.4,1.5.3,3.8-1.7,7.5-3.6,11.1-5.3,2.7-.9,5.4-1.9,8.2-2.7,3.4-.9,6.8-1.7,10.2-2.2,3.2-.4,6.5-.5,9.8-.5,1.3.1,2.6.3,3.9.6.5,0,1.1,0,1.6-.1.9.5,1.8,1,2.8,1.2,5.2,1,8.9,4.9,12.4,9.1.2.2.4.5.5.9,0,.2.2.4.4,1-1,.4-1.9,1-2.8,1.3-6.2,2.7-12.3,6.1-18,10.3-3.5,2.5-6.9,4.9-10.4,7.4-1.6,1.1-3.2,2.2-4.8,3.3l-8.2,5.6,6.5,13.5c-.8.4-1.4.9-2.1,1.2-1.1.6-2.4,1.2-3.5,1.9-3.4,2-6.8,4.2-10.2,6.2-1.5.9-3.1,1.5-4.7,1.9-1,.3-1.9-.3-2.2-1.5,0-.1,0-.3,0-.4-.5-2.6-.9-5-1.4-7.6-.4-2.1-1-4.2-1.6-6.6-1.6.9-2.9,1.6-4.2,2.4-1.2.7-2.5,1.6-3.6,2.6-.6.5-1.1,1.2-1.8,1.7-1.5,1.1-3.1,1.9-4.6,2.9-1.1.7-2.1,1.6-3.1,2.4Z"/>
    <path class="cls-17" d="M33,18.1l-1.7.5.4-2,1.3,1.5Z"/>
    <path class="cls-1" d="M50.5,15.1l-.4-.7.6.4-.3.3Z"/>
    <path class="cls-1" d="M49.5,14.6c0,.1-.2.2-.3.2l.3-.2Z"/>
    <path class="cls-18" d="M25,28.4l-.2,1.2c2.5.5,4.9.1,7.2-1,2.2-.9,4.3-1.9,6.5-2.9.4-.1,1-.1,1.4,0,.2,1,.3,2,.2,3.1-.5,2.6-.4,5.3.4,7.8l-5.9,5.3-4.8-3.2c0-1,.6-1.2,1.1-1.7,1.5-1.6,1.9-4.2,1.1-6.4-1.2.5-2.5,1.3-3.9,2.2-1.1.7-.8,2.5-1.6,3.4l-6.6-4.4c0-.4.3-.7.6-.9,1.5-.4,2.8-1.4,3.9-2.6h.5Z"/>
    <path class="cls-7" d="M24.5,28.4c-.5,1.4-1.6,2.4-2.8,2.8l-1.7.7c-2.1-.3-4.2-.6-6.1-2.4-.6-.3-.9-1.2-.8-1.9,1.1-.2,2.3-.4,3.3-.7,2-1.2,4.4-1.2,6.4,0,.5.4,1.1,1,1.6,1.5Z"/>
    <path class="cls-7" d="M26.5,36.3c0-2.4,1.1-4.4,3-4.9,1-.4,1.8-1.1,2.8-1.7,1.2,2.6.7,5.9-1.2,7.8-.4.3-.8.7-1.1,1.1l-2.9,1.9-.5-4.2Z"/>
    <path class="cls-11" d="M30.1,46.9l-.8.9-3.6-1.9v-.5c1.7-.3,2.9,1.1,4.4,1.6Z"/>
    <path class="cls-7" d="M27,23.3c-.4-.4-.6-.9-1-1.3-.9-1.1-1.8-2-2.5-3.1,0-.2,0-.5.2-.7h0c.4-.1.7-.2,1-.4l2.5-.5c.2.1.4.2.6.2,1.1,1,2.2,1.9,3.2,3,.3.4.5,1,.6,1.5,0,.4,0,.9.2,1.3-.2,1,.8,2.5-.4,2.9-.8.2-1.8-.6-2.6-1.1-.4-.3-.7-.6-1.1-1,0-.1-.2-.2-.3-.3h0v-.3h-.2Z"/>
    <path class="cls-18" d="M29.6,27.5l-1.6.2,1.6-.2Z"/>
    <path class="cls-18" d="M27.7,17.4l-.6-.2.6.2Z"/>
    <path class="cls-18" d="M27.1,28h-1.3c0,.1,1.3,0,1.3,0Z"/>
    <path class="cls-18" d="M24.6,17.7l-1,.4,1-.4Z"/>
    <path class="cls-18" d="M31.6,23l-.2-1.3.2,1.3Z"/>
    <path class="cls-18" d="M23.6,18.1l-.2.7.2-.7Z"/>
    <path class="cls-18" d="M27.2,23.6l.3.3-.3-.3Z"/>
    <path class="cls-18" d="M37.7,24.3h-.2.2Z"/>
    <path class="cls-18" d="M27,23.3l.2.2q0-.1-.2-.2Z"/>
    <path class="cls-14" d="M72.8,70.8l-14.4,7.4c-1.1-6-1.9-11.9-4.7-17-12.6,5.3-23.1,14.7-34,23-1-2,0-4.1,0-6,.4-7,3.2-12.5,6.5-18,3.7-6,8-11.4,12.6-16.3,1.3-1.4,2.5-3,3.9-4.6s1-2.1.8-3.4c-.2-2.4-.3-4.7-.4-7.1,0-1.3,0-2.7,0-4.4,3.2,2.6,7.1,3.3,8.7,8.1.8-.1,1.7-.4,2.5-.7,6.3-3.3,12.8-6,19.4-8.1,6.6-2.4,13.3-3.4,20.2-3.2,5.5.2,10.2,3.3,14.8,7.1-1.8,1-3.3,1.8-4.9,2.6-7.1,3.4-13.9,7.8-20.2,13.2-4.8,4.1-10.3,6.8-15.6,9.7-1.4.7-1.7,1.3-1,3,1.9,4.9,3.9,9.8,5.9,14.8Z"/>
    <path class="cls-8" d="M44.8,32.1c0-1.1.5-2,1.4-2.1h.4c1.1.2,1.9,1.1,2.2,2.4-.2,1.4-1.1,2.6-2.1,2.9-.9.1-1.8-1.6-1.8-3.1Z"/>
  </g>
</svg>