<?xml version="1.0" encoding="UTF-8"?>
<svg id="Layer_1" data-name="Layer 1" xmlns="http://www.w3.org/2000/svg" version="1.1" viewBox="0 0 841.9 595.3">
  <defs>
    <style>
      .cls-1 {
        fill: #101010;
      }

      .cls-1, .cls-2, .cls-3 {
        stroke-width: 0px;
      }

      .cls-2 {
        fill: #e8c30e;
      }

      .cls-3 {
        fill: #fed103;
      }
    </style>
  </defs>
  <path class="cls-3" d="M451.7,413.4h0c-5.5,12.6-14.2,23.2-22.9,33.5-21,24.9-46.1,44.7-75.5,58.4-20.1,9.4-40.9,16.2-63,19.7-14.1,2.1-28.2,3.3-42.3,2.9-28.5-.7-56.1-6.8-82.4-17.9-31-13.2-58-32.3-80.5-57.2-20.3-22.3-35.7-47.6-45.9-76-4.2-11.8-8.1-23.8-10.1-36-3.5-20.7-4.8-41.5-2.8-62.6,2.7-29,10.8-56.4,23.6-82.4,7.3-14.7,16.3-28.4,26.8-41.2,18.5-22.7,40.4-41.3,66-55.6,22.6-12.6,46.4-21.3,72-25.6,14.1-2.4,28.3-4.6,42.6-4.2,25.8.8,51,5.4,75.4,14.2,29.8,10.8,56.2,27.4,79.1,49.1,14.2,13.4,26.6,28.4,36.9,45.1,2.7,4.3,2.1,5.3-3.2,5.4-12.6,0-25.2.1-37.8,0-2.8,0-68,84.7-71.8,89-1.3,1.5-2.5,3.8-4.8,3.1-2.6-.8-2.1-3.6-2.2-5.7-.2-2.7,0-5.4,0-8.2v-69.9c0-7.2-.5-7.6-7.5-7.7h-39.8c-6.1,0-6.8.6-6.8,6.7v75c-.2,6.4-1.6,8-7.9,8.1-22.8.1-45.6.1-68.3,0-6.4,0-7.5-1.3-7.5-8.2v-75.6c-.2-5.2-.8-6.1-5.9-6-13.9.1-27.8,1.4-41.8,1-3.4-.1-4.3,2-4.2,4.9.3,11.1-.9,22.1-1,33.1-.2,59.9,0,119.8,0,179.6v3.5c.2,5.4.7,6.1,6.3,6.1h40.3c5.8,0,6.4-.6,6.4-6.5v-84.2c.3-5.3,1.8-7,7.2-7.2,5.7-.2,11.6,0,17.3,0h48c10.5,0,11.2.8,11.2,11.4v79.1c0,7.3.7,8.2,7.9,7.3,12.6-1.5,25.1-.6,37.7-.8,7-.2,7-.4,7.5-7.1,1.4-20.3.9-40.4.9-60.7s1.4-9,4.9-12.4,6.9-7.1,10.6-10.4c3.7-3.4,5.7-3.1,8.9.7.3.4.6.8.9,1.2,17.7,27.2,36.5,53.7,53.9,81.2,3.4,5.3,7.2,9.7,13.7,9.7s28.7,0,30,.2h0Z"/>
  <path class="cls-2" d="M452.1,365.2c0-36-.1-72.1-.3-108.1,0-15.9-.4-32-.6-47.9-6.5,6.3-11.9,13.3-17.1,20.6h0c-14.8,16.3-28.1,33.8-42.4,50.5-1.3,1.5-1.2,3,0,4.6,9.2,13,18.2,25.9,27.4,38.9.1.5.2,1,.4,1.4,9.6,13.9,19.2,27.9,28.7,41.8.8,1.2,1.5,2.6,3.1,3,1.4-1.4.7-3.2.7-4.8h.1Z"/>
  <g>
    <path class="cls-1" d="M796.7,401.9c-3.2-11.7-6.5-23.4-9.7-35.1-.4-1.5-1-2-2.9-1.1-19,9.8-39.1,11.3-59.7,8.1-22.5-3.6-38.6-16.2-48-37.1-8.8-19.6-9.1-40.1-5.9-60.8,2-13.2,7.4-25.3,16.4-35.4,13.3-14.8,30.8-19.6,49.7-20.5,15.8-.7,30.8,3.1,45,10.4,2.6,1.4,3.7,1.1,4.5-1.9,3.1-10.7,6.4-21.4,9.9-32,1.3-3.9.5-5.7-3.2-7.4-30.2-13.3-61.5-14.5-93.3-7.8-25.5,5.3-47.2,17.4-63.7,37.9-2.2,2.7-2.9.7-4.1-.6-20.3-23.3-47.2-33.2-76.7-35.5-33.3-2.7-66.6-.7-100-.7s-3.3.7-3.4,3.4c0,7.8.8,15.6-.4,23.4-1.8,5.1-.9,10.4-.9,15.6,0,45.4.1,90.7-.2,136.1,0,3,2,41.1.5,52.3,24.6.1,50.4.5,75,.3,12.5-.1,25-1.3,37.3-4,25.2-5.5,47.8-16.1,65.2-35.8,3-3.4,4.1-3.1,6.9.3,18.8,24.5,44.7,36.9,74.3,41.6,15.9,2.5,32.2,2,48.3.3,12.7-1.4,24.7-5.1,36.5-10,1.7-.7,3.2-1.7,2.6-4.2h.2ZM590.4,334.1c-9.2,19.2-23.9,30.7-45.2,34.7-11,2-21.9,1.7-32.9,2.2-3.6.2-5-.9-4.5-4.5v-68.9h-.2c0-22.6.1-45.2-.1-67.8,0-4.8,1.4-5.9,6-5.8,12.1.4,24.2-.4,36,2.5,28.6,7,45.6,26.7,48.3,56.9,1.6,17.4.1,34.6-7.6,50.7h.1Z"/>
    <path class="cls-1" d="M451.8,413.4h0Z"/>
  </g>
  <g>
    <path class="cls-1" d="M516.6,484.8c-1.9-.3-3.7-.4-4.9,1.6-1.3,2.2-2.6,4.3-4.3,7.1-1.8-2.9-3.2-5-4.5-7.3-1.1-2-2.8-1.6-4.4-1.5-2.1.2-1.5,1.9-1.5,3.2v14.3c0,1.7-.3,3.5,2.3,3.4,2.5,0,1.8-1.9,1.9-3.3.3-2.7-.7-5.5.8-8.7,1.9,2.5,3.4,4.6,5,6.7,2.7-1.5,3-4.9,6.1-6.9,0,3.5.1,6.4,0,9.2-.1,2.1.4,3,2.7,3s2.2-1.4,2.1-3v-14.3c0-1.3,1.1-3.3-1.4-3.6h.1Z"/>
    <path class="cls-1" d="M627.8,469.6c2.3,0,2.2-1.5,2.2-3.1v-8.7c.3-.1.7-.2,1-.3,2.8,3.5,5.5,7.1,8.4,10.6.9,1.2,2.1,1.7,3.6,1.3,1.6-.5,1.6-1.9,1.6-3.3v-14.8c0-1.8,0-3.4-2.5-3.5s-2.6,1.6-2.5,3.4v9.7c-3.3-4.4-5.8-7.7-8.2-10.9-1.1-1.5-2.4-2.4-4.3-2-2.1.5-1.6,2.3-1.6,3.7v14.8c0,1.7.2,3,2.4,3h-.1Z"/>
    <path class="cls-1" d="M488.8,469.8c6.4.2,11.5-4.4,11.6-10.7.2-6.1-4.8-11.3-11-11.5-5.9-.1-11.1,4.7-11.2,10.6-.2,6.6,4.1,11.3,10.6,11.5h0ZM489.4,452.1c3.9.5,5.8,3,5.9,7.4-.1,3.2-3.2,6.5-6.5,6-3.9-.5-5.9-3-5.9-7s3.2-6.9,6.5-6.5Z"/>
    <path class="cls-1" d="M606.9,469.8c6.3.1,11.5-4.9,11.5-11.1s-5.5-11.2-11.6-11.1c-6.4.2-10.7,4.7-10.7,11.2s4.2,10.9,10.8,11h0ZM606.9,452.1c3.6-.4,6.5,3,6.4,8-.2,3-2.5,5.5-6.4,5.4s-6.1-2.8-6.3-6.7c0-3.9,2.4-6.4,6.3-6.8h0Z"/>
    <path class="cls-1" d="M553.8,458.7c0-2.6-2.7-.9-3.9-1.4h-1.2c-1.4.4-3.6-1.2-4.1,1.5-.4,2.4,1.2,2.4,3,2.7,2,.3,1.5,2,.5,3-1.6,1.6-3.7,1.6-5.6.5-3.1-1.9-5.1-4.5-3.6-8.5,1.4-3.8,4.9-5.4,9.1-3.4,2.6,1.3,3.5,0,4.3-1.5,1.1-2.3-1.3-2.3-2.4-2.8-5.2-2.3-11.6-.6-14.4,3.7-2.6,4-2,11,1.3,14.1,3.7,3.6,11.4,4.1,15.5.9,3.2-2.4,1.5-5.9,1.5-9h.1Z"/>
    <path class="cls-1" d="M525.2,469.5c1.3-.3,1.3-1.4,1.3-2.4v-16.8c0-1.8-.9-2.3-2.5-2.3s-1.7,1.3-1.7,2.5v9.4c-3.7-3.1-6.4-6.6-9-10.1-1-1.3-2.3-2-3.9-1.7-2.3.5-1.5,2.3-1.5,3.7v14.8c0,1.6,0,3.2,2.3,3,1.9-.1,2.6-1.1,2.6-3v-10.1c3.5,4.5,6.1,7.9,8.7,11.3,1,1.3,2.3,2,3.9,1.6h-.2Z"/>
    <path class="cls-1" d="M700.4,484.3c-6.6,0-11.4,4.5-11.4,10.9s5.2,11.2,11.4,11.2,11.1-5.1,11-11.4c0-6.3-4.5-10.6-11-10.7ZM706.9,495.5c-.5,3.7-2.4,6.4-5.1,6.1-5.8-.2-7.9-2.6-7.8-6.6,0-3.9,2.2-6.4,6.4-6.5,3.5,0,7.1,3.4,6.6,6.9Z"/>
    <path class="cls-1" d="M671.6,462.6c0-5.6-.4-6-6.6-5.3-1.1.1-2.5-.1-2.6,1.6,0,1.5.3,2.7,2.2,2.6,1.1,0,2.5-.2,2.3,1.7-.1,1.5-1.4,1.8-2.5,2.2-2.5.9-4.7-.2-6.5-1.9-1.7-1.8-2.3-4.1-1.5-6.6,1.3-3.8,4.6-5.3,9.4-3.4,2.2.8,3.2,0,3.9-1.6.8-1.7-.7-2.3-1.9-2.9-4.4-2.2-9.8-1.4-13.2,2-3.5,3.5-4.6,7.8-2.6,12.6,1.8,4.4,7.5,7.4,12.7,6.3,3.8-.9,8-1.9,6.8-7.1v-.2Z"/>
    <path class="cls-1" d="M533.5,484.4c-6.6,0-11,4.2-11.1,10.5,0,6.6,4.5,11.3,11,11.3s11.2-4.8,11.3-10.7c.1-6.4-4.5-11.1-11.2-11.1h0ZM533.5,501.5c-3.8,0-7.3-2.9-6.9-6.5.4-3.7,2.3-6.4,6.5-6.6,3.7-.2,6.8,2.7,6.8,7.2-.2,3.4-2.1,5.7-6.4,5.8h0Z"/>
    <path class="cls-1" d="M757.5,487.7c0-1.6,0-3-2.2-3s-2.8.6-2.7,2.6c.1,2.8,0,5.6,0,8.4-1.5.2-2-.6-2.4-1.2-1.9-2.5-3.8-5.1-5.7-7.8-1.1-1.5-2.5-2.3-4.3-1.9-2.3.5-1.2,2.5-1.3,3.7-.1,4.7,0,9.5,0,14.3s0,2.9,2.3,2.9,1.9-1.4,1.9-2.7v-8.8c3.9,3.1,6.8,6.5,9.2,10,1.1,1.6,2.5,1.5,3.9,1.4,2.2-.1,1.4-1.9,1.4-3.1v-14.8h0Z"/>
    <path class="cls-1" d="M457.1,484.7c-8.2,0-2.5,6.1-4.2,9.1-.2.4,0,1,0,1.5,0,7.2,3,10.7,9,10.4,6-.3,10.7-4.8,10.6-10.6,0-7.1-5-10.4-15.3-10.4h0ZM460.5,501.5c-5.9.2-2.3-4.2-3.5-6.3.8-2.5-1.8-6.8,3.8-6.5,4.2.3,6.8,2.4,6.7,6.5,0,4-2.6,6-7,6.3Z"/>
    <path class="cls-1" d="M490.5,501.3c-2.4.1-4.7,0-7.2,0s-2.1-.5-2.1-2.1.5-2.1,2.1-2h5.6c1.7,0,2.5-.7,2.5-2.4s-1.1-1.9-2.4-1.9h-5.6c-1.4,0-2.1-.6-2.2-2.1,0-1.6.8-2,2.2-1.9h7.2c1.5,0,2.1-.7,2.1-2.1s-.5-2.2-2-2.1h-3.5c-6.9,0-10.4,3.4-10.4,10.2,0,6.8,3.6,10.4,10.8,10.9h3c1.3,0,2.3-.2,2.3-1.9s-.4-2.5-2.3-2.4h-.1Z"/>
    <path class="cls-1" d="M585.9,486.2c-4.2-2.9-9.2-1.1-13.9-1.3-1.2,0-.9,1.5-1,2.5v15.8c0,1.6.2,2.6,2.2,2.5,1.7,0,2.3-.7,2.3-2.4s-1-3.5,1.7-4c2.3-.4,3.4,1.2,4.2,2.8,1.5,2.9,3.4,4.5,7.5,3-3.1-3.5-4.9-6.5-1.2-10.6,2.5-2.7,1.1-6.4-1.9-8.4h.1ZM578.5,495.3c-2.4,0-3.1-.9-3.3-3.2-.2-3.6,2.1-3.2,4.4-3.1,2.2-.3,4.5.4,4.5,2.7s-2.8,3.6-5.6,3.6h0Z"/>
    <path class="cls-1" d="M589.2,464.6c-3.6-4.8-3.3-9.4.7-14,.5-.6.9-1.3,1.6-2.2-7.2-1.8-8.5,5.8-13.3,7.8v-4.3c.1-2,0-3.8-2.7-3.8s-2.4,1.8-2.4,3.5v14.2c0,1.7-.3,3.5,2.3,3.6,2.6,0,3-1.6,2.8-3.7,0-1.7-.3-3.8,1.7-4.2,2-.4,2.5,1.8,3.5,3.1,2,2.6,3.4,6.1,8.6,4.3-1.1-1.6-1.9-3-2.9-4.3h.1Z"/>
    <path class="cls-1" d="M455.1,469.3c3.2,0,2.3-2.4,2.2-4-.2-3,.6-4.1,3.8-4.2,3.7,0,5.8.6,5.1,4.9-.3,1.7-.3,3.5,2.3,3.5s2-2.2,2-3.7v-13.7c0-1.5.9-3.7-1.8-3.9-2.9-.2-2.7,2.1-2.5,3.8.6,4-1.2,4.8-4.9,4.7-3.4,0-4.4-1.3-4.2-4.5.1-1.6,1.1-4.1-2.2-3.9-3.1.2-1.9,2.6-2,4.2-.2,2,0,4,0,6h0v6.7c0,1.7-.8,4,2.2,4.1Z"/>
    <path class="cls-1" d="M731.4,484.7c-1.9,0-2.2,1-2.2,2.6,0,3.2.2,6.5,0,9.7-.2,2.8-1.5,4.7-4.9,4.5-3.1-.1-4-2.1-4.2-4.6-.2-3.2,0-6.5,0-9.7s-.6-2.5-2.4-2.4c-1.9,0-2.2,1.1-2.2,2.6v10.2c.1,5.4,3.4,8.6,9.1,8.6s8.9-3.1,9.1-8.6v-10.2c0-1.6-.3-2.5-2.2-2.5v-.2Z"/>
    <path class="cls-1" d="M602.3,484.4c-1.9,0-2.5,1.2-3.1,2.7-2.2,5.1-4.5,10.2-6.7,15.3-.4.9-1.7,2.3-.1,3,1.2.5,2.8.7,4-.9,4-5.2,7.9-5.2,11.7-.1,1.4,1.9,3.1,1.5,5.2.8-2.6-6.1-5.1-12.1-7.8-18.1-.6-1.4-1.3-2.6-3.3-2.6h0ZM604.2,496.9c-.6.9-3,.9-3.7,0-1.8-2.4.7-4,1.8-6.6,1.2,2.4,3.5,4,1.9,6.5h0Z"/>
    <path class="cls-1" d="M628.8,500.7c-4.6,2.3-9.3-.5-9.5-5.3-.2-5.1,4.2-8,9.6-5.6,2.3,1,3.3,0,4-1.3.9-1.7-.9-2.4-2-2.9-1.7-.7-3.5-.9-4.3-1.1-6.4,0-9.8,2.4-11.9,7.6-1.9,4.7.2,8.4,3.2,11.4,3.6,3.5,8.2,3.5,12.7,1.5,1.3-.6,3.5-1.2,2.2-3.6-1.1-1.9-2.3-1.4-4.1-.5h.1Z"/>
    <path class="cls-1" d="M562.1,500.7c-5.6,2.5-10-.9-9.2-6.9.6-4.4,4.1-6.3,9.3-4.2,2.2.9,3.3.4,4.1-1.2,1-2.1-1.2-2.5-2.4-3-7.6-3.5-16,1.5-16.1,9.5,0,8.8,8.7,14.1,16.2,9.9,1.2-.7,3.3-1,2.1-3.2-1-1.8-2.1-1.6-4.1-.8h.1Z"/>
    <path class="cls-1" d="M681.6,500.7c-2,1.2-4.4,1.3-6.7-.2-2.4-1.7-2.9-4-2.6-6.7.6-4.2,4.4-6.1,9.4-4.1,1.9.8,2.9.4,3.7-1,1.2-2-.7-2.8-1.9-3.3-1.5-.7-3.2-.8-4-1-6.3,0-10,2.2-11.8,7.4-1.7,4.6-.2,8.5,2.9,11.6,3.5,3.5,8.2,3.5,12.6,1.7,1.5-.6,3.4-1.4,2.3-3.7-1-2-2.3-1.6-4-.5h.1Z"/>
    <path class="cls-1" d="M775.8,500.6c-3.1,1.5-6.3,1.5-8.4-1.8-1.7-2.7-1.6-5.4.4-8,2.1-2.6,5-2.7,7.8-1.4,2.3,1.2,3.7.7,4.4-1.3.8-2.4-1.8-2.4-3-3.1-1-.7-2.6-.5-3.9-.6-5-.4-8.5,2.1-10.7,6.3-2,3.9-.3,10,3,12.9,3.8,3.3,8.1,2.9,12.3,1.2,1.3-.5,3.6-1.1,2.3-3.5-1.1-1.9-2.4-1.4-4.2-.6h0Z"/>
    <path class="cls-1" d="M645.6,492.1c-3-2.7-2.8-9.4-9.6-6.9,2.4,5.7,8.4,10.2,7.2,17.3-.3,2,.2,3.1,2.6,3.1s2.3-1.9,2.2-3.4c-.4-3.4.8-6.3,2.7-9,1.8-2.5,3.3-5.3,5-8.1-7-2.5-6.6,5-10.1,6.9h-.1Z"/>
    <path class="cls-1" d="M807,501.4c-1.2,0-2.4-.1-3.5,0-3.4.5-4.4-.9-4.1-4.2.3-3.3,0-6.8.1-10.2,0-1.7-.7-2.4-2.4-2.4s-2.3.8-2.2,2.4v7.6c0,7.5,3.8,11.1,11.4,10.9h1c1.3,0,2.8.3,2.8-1.9s-1.3-2.4-3-2.3v.2Z"/>
    <path class="cls-1" d="M789.5,495.5v-8.7c0-1.4-.5-2.2-2-2.3-1.7,0-2.4.7-2.4,2.4v16.2c0,1.6.4,2.6,2.3,2.5,1.8,0,2.2-1.1,2.2-2.6v-7.7h-.1Z"/>
  </g>
</svg>