<?xml version="1.0" encoding="UTF-8"?>
<svg id="Layer_1" data-name="Layer 1" xmlns="http://www.w3.org/2000/svg" version="1.1" viewBox="0 0 841.9 595.3">
  <defs>
    <style>
      .cls-1 {
        fill: #101010;
      }

      .cls-1, .cls-2, .cls-3 {
        stroke-width: 0px;
      }

      .cls-2 {
        fill: #e8c30e;
      }

      .cls-3 {
        fill: #fed103;
      }
    </style>
  </defs>
  <path class="cls-3" d="M448.3,412.5h0c-5.5,12.5-14.1,23-22.7,33.2-20.8,24.7-45.7,44.3-74.9,57.9-19.9,9.3-40.6,16.1-62.5,19.5-14,2.1-28,3.3-42,2.9-28.3-.7-55.6-6.7-81.7-17.8-30.8-13.1-57.5-32-79.9-56.7-20.1-22.1-35.4-47.2-45.5-75.4-4.2-11.7-8-23.6-10-35.7-3.5-20.5-4.8-41.2-2.8-62.1,2.7-28.8,10.7-55.9,23.4-81.7,7.2-14.6,16.2-28.2,26.6-40.9,18.4-22.5,40.1-41,65.5-55.2,22.4-12.5,46-21.1,71.4-25.4,14-2.4,28.1-4.6,42.3-4.2,25.6.8,50.6,5.4,74.8,14.1,29.6,10.7,55.7,27.2,78.5,48.7,14.1,13.3,26.4,28.2,36.6,44.7,2.7,4.3,2.1,5.3-3.2,5.4-12.5,0-25,.1-37.5,0-2.8,0-67.5,84-71.2,88.3-1.3,1.5-2.5,3.8-4.8,3.1-2.6-.8-2.1-3.6-2.2-5.7-.2-2.7,0-5.4,0-8.1,0-23.1,0-46.2,0-69.3,0-7.1-.5-7.5-7.4-7.6-13.2,0-26.3,0-39.5,0-6.1,0-6.7.6-6.7,6.6,0,22.8,0,45.6,0,68.3,0,2,0,4.1,0,6.1-.2,6.3-1.6,7.9-7.8,8-22.6.1-45.2.1-67.8,0-6.3,0-7.4-1.3-7.4-8.1,0-23.3,0-46.6,0-69.9,0-1.7,0-3.4,0-5.1-.2-5.2-.8-6.1-5.9-6-13.8.1-27.6,1.4-41.5,1-3.4-.1-4.3,2-4.2,4.9.3,11-.9,21.9-1,32.8-.2,59.4,0,118.8,0,178.2,0,1.2,0,2.4,0,3.5.2,5.4.7,6.1,6.2,6.1,13.3,0,26.7,0,40,0,5.8,0,6.3-.6,6.3-6.4,0-25.8,0-51.6,0-77.4,0-2,0-4.1,0-6.1.3-5.3,1.8-6.9,7.1-7.1,5.7-.2,11.5,0,17.2,0,15.9,0,31.7,0,47.6,0,10.4,0,11.1.8,11.1,11.3,0,26.2,0,52.3,0,78.5,0,7.2.7,8.1,7.8,7.2,12.5-1.5,24.9-.6,37.4-.8,6.9-.2,6.9-.4,7.4-7,1.4-20.1.9-40.1.9-60.2,0-4.8,1.4-8.9,4.9-12.3,3.5-3.4,6.8-7,10.5-10.3,3.7-3.4,5.7-3.1,8.8.7.3.4.6.8.9,1.2,17.6,27,36.2,53.3,53.5,80.5,3.4,5.3,7.1,9.6,13.6,9.6s28.5,0,29.8.2Z"/>
  <path class="cls-2" d="M448.7,364.7c0-35.7-.1-71.5-.3-107.2,0-15.8-.4-31.7-.6-47.5-6.4,6.2-11.8,13.2-17,20.4,0,0,0,0,0,0-14.7,16.2-27.9,33.5-42.1,50.1-1.3,1.5-1.2,3,0,4.6,9.1,12.9,18.1,25.7,27.2,38.6.1.5.2,1,.4,1.4,9.5,13.8,19,27.7,28.5,41.5.8,1.2,1.5,2.6,3.1,3,1.4-1.4.7-3.2.7-4.8Z"/>
  <g>
    <path class="cls-1" d="M790.5,401.1c-3.2-11.6-6.4-23.2-9.6-34.8-.4-1.5-1-2-2.9-1.1-18.8,9.7-38.8,11.2-59.2,8-22.3-3.6-38.3-16.1-47.6-36.8-8.7-19.4-9-39.8-5.9-60.3,2-13.1,7.3-25.1,16.3-35.1,13.2-14.7,30.6-19.4,49.3-20.3,15.7-.7,30.6,3.1,44.6,10.3,2.6,1.4,3.7,1.1,4.5-1.9,3.1-10.6,6.3-21.2,9.8-31.7,1.3-3.9.5-5.7-3.2-7.3-30-13.2-61-14.4-92.6-7.7-25.3,5.3-46.8,17.3-63.2,37.6-2.2,2.7-2.9.7-4.1-.6-20.1-23.1-46.8-32.9-76.1-35.2-33-2.7-66.1-.7-99.2-.7-2.7,0-3.3.7-3.4,3.4,0,7.7.8,15.5-.4,23.2-1.8,5.1-.9,10.3-.9,15.5,0,45,.1,90-.2,135,0,3,2,40.8.5,51.9,24.4.1,50,.5,74.4.3,12.4-.1,24.8-1.3,37-4,25-5.5,47.4-16,64.7-35.5,3-3.4,4.1-3.1,6.8.3,18.6,24.3,44.3,36.6,73.7,41.3,15.8,2.5,31.9,2,47.9.3,12.6-1.4,24.5-5.1,36.2-9.9,1.7-.7,3.2-1.7,2.6-4.2ZM585.9,333.8c-9.1,19-23.7,30.5-44.8,34.4-10.9,2-21.7,1.7-32.6,2.2-3.6.2-5-.9-4.5-4.5,0-.2,0-.3,0-.5v-67.8h-.2c0-22.4.1-44.8-.1-67.3,0-4.8,1.4-5.9,6-5.8,12,.4,24-.4,35.7,2.5,28.4,6.9,45.2,26.5,47.9,56.4,1.6,17.3.1,34.3-7.5,50.3Z"/>
    <path class="cls-1" d="M448.4,412.5s0,0,0,0c0,0,0,0,0,0,0,0,0,0,0,0Z"/>
  </g>
  <g>
    <path class="cls-1" d="M512.7,483.3c-1.9-.3-3.7-.4-4.9,1.6-1.3,2.2-2.6,4.3-4.3,7-1.8-2.9-3.2-5-4.5-7.2-1.1-2-2.8-1.6-4.4-1.5-2.1.2-1.5,1.9-1.5,3.2,0,4.7,0,9.4,0,14.2,0,1.7-.3,3.5,2.3,3.4,2.5,0,1.8-1.9,1.9-3.3.3-2.7-.7-5.5.8-8.6,1.9,2.5,3.4,4.6,5,6.6,2.7-1.5,3-4.9,6.1-6.8,0,3.5.1,6.3,0,9.1-.1,2.1.4,3,2.7,3,2.4,0,2.2-1.4,2.1-3,0-4.7,0-9.4,0-14.2,0-1.3,1.1-3.3-1.4-3.6Z"/>
    <path class="cls-1" d="M623,468.2c2.3,0,2.2-1.5,2.2-3.1,0-2.9,0-5.7,0-8.6.3-.1.7-.2,1-.3,2.8,3.5,5.5,7,8.3,10.5.9,1.2,2.1,1.7,3.6,1.3,1.6-.5,1.6-1.9,1.6-3.3,0-4.9,0-9.8,0-14.7,0-1.8,0-3.4-2.5-3.5-2.5-.1-2.6,1.6-2.5,3.4,0,2.7,0,5.5,0,9.6-3.3-4.4-5.8-7.6-8.1-10.8-1.1-1.5-2.4-2.4-4.3-2-2.1.5-1.6,2.3-1.6,3.7,0,4.9,0,9.8,0,14.7,0,1.7.2,3,2.4,3Z"/>
    <path class="cls-1" d="M485.1,468.4c6.3.2,11.4-4.4,11.5-10.6.2-6.1-4.8-11.2-10.9-11.4-5.9-.1-11,4.7-11.1,10.5-.2,6.5,4.1,11.2,10.5,11.4ZM485.7,450.9c3.9.5,5.8,3,5.9,7.3-.1,3.2-3.2,6.4-6.4,6-3.9-.5-5.9-3-5.9-6.9,0-3.5,3.2-6.8,6.4-6.4Z"/>
    <path class="cls-1" d="M602.2,468.4c6.2.1,11.4-4.9,11.4-11,0-5.9-5.5-11.1-11.5-11-6.3.2-10.6,4.7-10.6,11.1,0,6.5,4.2,10.8,10.7,10.9ZM602.2,450.9c3.6-.4,6.4,3,6.3,7.9-.2,3-2.5,5.5-6.3,5.4-3.8-.1-6.1-2.8-6.2-6.6,0-3.9,2.4-6.3,6.2-6.7Z"/>
    <path class="cls-1" d="M549.6,457.4c0-2.6-2.7-.9-3.9-1.4-.5,0-.9,0-1.2,0-1.4.4-3.6-1.2-4.1,1.5-.4,2.4,1.2,2.4,3,2.7,2,.3,1.5,2,.5,3-1.6,1.6-3.7,1.6-5.6.5-3.1-1.9-5.1-4.5-3.6-8.4,1.4-3.8,4.9-5.4,9-3.4,2.6,1.3,3.5,0,4.3-1.5,1.1-2.3-1.3-2.3-2.4-2.8-5.2-2.3-11.5-.6-14.3,3.7-2.6,4-2,10.9,1.3,14,3.7,3.6,11.3,4.1,15.4.9,3.2-2.4,1.5-5.9,1.5-8.9Z"/>
    <path class="cls-1" d="M521.2,468.1c1.3-.3,1.3-1.4,1.3-2.4,0-5.6,0-11.1,0-16.7,0-1.8-.9-2.3-2.5-2.3-1.8,0-1.7,1.3-1.7,2.5,0,3.1,0,6.2,0,9.3-3.7-3.1-6.3-6.5-8.9-10-1-1.3-2.3-2-3.9-1.7-2.3.5-1.5,2.3-1.5,3.7,0,4.9,0,9.8,0,14.7,0,1.6,0,3.2,2.3,3,1.9-.1,2.6-1.1,2.6-3,0-2.8,0-5.6,0-10,3.5,4.5,6.1,7.8,8.6,11.2,1,1.3,2.3,2,3.9,1.6Z"/>
    <path class="cls-1" d="M695,482.8c-6.5,0-11.3,4.5-11.3,10.8,0,6,5.2,11.1,11.3,11.1,6.1,0,11-5.1,10.9-11.3,0-6.2-4.5-10.5-10.9-10.6ZM701.4,493.9c-.5,3.7-2.4,6.3-5.1,6.1-5.8-.2-7.8-2.6-7.7-6.5,0-3.9,2.2-6.3,6.3-6.4,3.5,0,7,3.4,6.5,6.8Z"/>
    <path class="cls-1" d="M666.4,461.3c0-5.6-.4-6-6.5-5.3-1.1.1-2.5-.1-2.6,1.6,0,1.5.3,2.7,2.2,2.6,1.1,0,2.5-.2,2.3,1.7-.1,1.5-1.4,1.8-2.5,2.2-2.5.9-4.7-.2-6.4-1.9-1.7-1.8-2.3-4.1-1.5-6.5,1.3-3.8,4.6-5.3,9.3-3.4,2.2.8,3.2,0,3.9-1.6.8-1.7-.7-2.3-1.9-2.9-4.4-2.2-9.7-1.4-13.1,2-3.5,3.5-4.6,7.7-2.6,12.5,1.8,4.4,7.4,7.3,12.6,6.2,3.8-.9,7.9-1.9,6.7-7Z"/>
    <path class="cls-1" d="M529.4,482.9c-6.5,0-10.9,4.2-11,10.4,0,6.5,4.5,11.2,10.9,11.2,6,0,11.1-4.8,11.2-10.6.1-6.3-4.5-11-11.1-11ZM529.4,499.9c-3.8,0-7.2-2.9-6.8-6.4.4-3.7,2.3-6.3,6.4-6.5,3.7-.2,6.7,2.7,6.7,7.1-.2,3.4-2.1,5.7-6.3,5.8Z"/>
    <path class="cls-1" d="M751.6,486.2c0-1.6,0-3-2.2-3-1.9,0-2.8.6-2.7,2.6.1,2.8,0,5.6,0,8.3-1.5.2-2-.6-2.4-1.2-1.9-2.5-3.8-5.1-5.7-7.7-1.1-1.5-2.5-2.3-4.3-1.9-2.3.5-1.2,2.5-1.3,3.7-.1,4.7,0,9.4,0,14.2,0,1.6,0,2.9,2.3,2.9,2.1,0,1.9-1.4,1.9-2.7,0-2.9,0-5.8,0-8.7,3.9,3.1,6.7,6.4,9.1,9.9,1.1,1.6,2.5,1.5,3.9,1.4,2.2-.1,1.4-1.9,1.4-3.1,0-4.9,0-9.8,0-14.7Z"/>
    <path class="cls-1" d="M453.6,483.2c-8.1,0-2.5,6.1-4.2,9-.2.4,0,1,0,1.5q0,10.7,8.9,10.3c6-.3,10.6-4.8,10.5-10.5,0-7-5-10.3-15.2-10.3ZM457,499.9c-5.9.2-2.3-4.2-3.5-6.2.8-2.5-1.8-6.7,3.8-6.4,4.2.3,6.7,2.4,6.6,6.4,0,4-2.6,6-6.9,6.2Z"/>
    <path class="cls-1" d="M486.8,499.7c-2.4.1-4.7,0-7.1,0-1.5,0-2.1-.5-2.1-2.1,0-1.5.5-2.1,2.1-2,1.9,0,3.7,0,5.6,0,1.7,0,2.5-.7,2.5-2.4,0-1.6-1.1-1.9-2.4-1.9-1.9,0-3.7,0-5.6,0-1.4,0-2.1-.6-2.2-2.1,0-1.6.8-2,2.2-1.9,2.4,0,4.7,0,7.1,0,1.5,0,2.1-.7,2.1-2.1,0-1.5-.5-2.2-2-2.1-1.2,0-2.4,0-3.5,0q-10.3,0-10.3,10.1t10.7,10.8c1,0,2,0,3,0,1.3,0,2.3-.2,2.3-1.9,0-1.6-.4-2.5-2.3-2.4Z"/>
    <path class="cls-1" d="M581.4,484.7c-4.2-2.9-9.1-1.1-13.8-1.3-1.2,0-.9,1.5-1,2.5,0,5.2,0,10.4,0,15.7,0,1.6.2,2.6,2.2,2.5,1.7,0,2.3-.7,2.3-2.4,0-1.5-1-3.5,1.7-4,2.3-.4,3.4,1.2,4.2,2.8,1.5,2.9,3.4,4.5,7.4,3-3.1-3.5-4.9-6.4-1.2-10.5,2.5-2.7,1.1-6.3-1.9-8.3ZM574.1,493.7c-2.4,0-3.1-.9-3.3-3.2-.2-3.6,2.1-3.2,4.4-3.1,2.2-.3,4.5.4,4.5,2.7,0,3.1-2.8,3.6-5.6,3.6Z"/>
    <path class="cls-1" d="M584.7,463.3q-5.3-7.1.7-13.9c.5-.6.9-1.3,1.6-2.2-7.1-1.8-8.4,5.8-13.2,7.7,0-1.6,0-3,0-4.3.1-2,0-3.8-2.7-3.8-2.5,0-2.4,1.8-2.4,3.5,0,4.7,0,9.4,0,14.1,0,1.7-.3,3.5,2.3,3.6,2.6,0,3-1.6,2.8-3.7,0-1.7-.3-3.8,1.7-4.2,2-.4,2.5,1.8,3.5,3.1,2,2.6,3.4,6.1,8.5,4.3-1.1-1.6-1.9-3-2.9-4.3Z"/>
    <path class="cls-1" d="M451.6,467.9c3.2,0,2.3-2.4,2.2-4-.2-3,.6-4.1,3.8-4.2,3.7,0,5.8.6,5.1,4.9-.3,1.7-.3,3.5,2.3,3.5,2.8,0,2-2.2,2-3.7,0-4.5,0-9.1,0-13.6,0-1.5.9-3.7-1.8-3.9-2.9-.2-2.7,2.1-2.5,3.8.6,4-1.2,4.8-4.9,4.7-3.4,0-4.4-1.3-4.2-4.5.1-1.6,1.1-4.1-2.2-3.9-3.1.2-1.9,2.6-2,4.2-.2,2,0,4,0,6h0c0,2.2,0,4.4,0,6.6,0,1.7-.8,4,2.2,4.1Z"/>
    <path class="cls-1" d="M725.7,483.2c-1.9,0-2.2,1-2.2,2.6,0,3.2.2,6.4,0,9.6-.2,2.8-1.5,4.7-4.9,4.5-3.1-.1-4-2.1-4.2-4.6-.2-3.2,0-6.4,0-9.6,0-1.7-.6-2.5-2.4-2.4-1.9,0-2.2,1.1-2.2,2.6,0,3.4,0,6.7,0,10.1.1,5.4,3.4,8.5,9,8.5,5.6,0,8.8-3.1,9-8.5,0-1.3,0-2.7,0-4,0-2,0-4,0-6.1,0-1.6-.3-2.5-2.2-2.5Z"/>
    <path class="cls-1" d="M597.7,482.9c-1.9,0-2.5,1.2-3.1,2.7-2.2,5.1-4.5,10.1-6.6,15.2-.4.9-1.7,2.3-.1,3,1.2.5,2.8.7,4-.9,4-5.2,7.8-5.2,11.6-.1,1.4,1.9,3.1,1.5,5.2.8-2.6-6.1-5.1-12-7.7-18-.6-1.4-1.3-2.6-3.3-2.6ZM599.6,495.3c-.6.9-3,.9-3.7,0-1.8-2.4.7-4,1.8-6.5,1.2,2.4,3.5,4,1.9,6.4Z"/>
    <path class="cls-1" d="M624,499.1c-4.6,2.3-9.2-.5-9.4-5.3-.2-5.1,4.2-7.9,9.5-5.6,2.3,1,3.3,0,4-1.3.9-1.7-.9-2.4-2-2.9-1.7-.7-3.5-.9-4.3-1.1-6.3,0-9.7,2.4-11.8,7.5-1.9,4.7.2,8.3,3.2,11.3,3.6,3.5,8.1,3.5,12.6,1.5,1.3-.6,3.5-1.2,2.2-3.6-1.1-1.9-2.3-1.4-4.1-.5Z"/>
    <path class="cls-1" d="M557.8,499.1c-5.6,2.5-9.9-.9-9.1-6.8.6-4.4,4.1-6.2,9.2-4.2,2.2.9,3.3.4,4.1-1.2,1-2.1-1.2-2.5-2.4-3-7.5-3.5-15.9,1.5-16,9.4,0,8.7,8.6,14,16.1,9.8,1.2-.7,3.3-1,2.1-3.2-1-1.8-2.1-1.6-4.1-.8Z"/>
    <path class="cls-1" d="M676.3,499.1c-2,1.2-4.4,1.3-6.6-.2-2.4-1.7-2.9-4-2.6-6.6.6-4.2,4.4-6.1,9.3-4.1,1.9.8,2.9.4,3.7-1,1.2-2-.7-2.8-1.9-3.3-1.5-.7-3.2-.8-4-1-6.2,0-9.9,2.2-11.7,7.3-1.7,4.6-.2,8.4,2.9,11.5,3.5,3.5,8.1,3.5,12.5,1.7,1.5-.6,3.4-1.4,2.3-3.7-1-2-2.3-1.6-4-.5Z"/>
    <path class="cls-1" d="M769.8,499c-3.1,1.5-6.2,1.5-8.3-1.8-1.7-2.7-1.6-5.4.4-7.9,2.1-2.6,5-2.7,7.7-1.4,2.3,1.2,3.7.7,4.4-1.3.8-2.4-1.8-2.4-3-3.1-1-.7-2.6-.5-3.9-.6-5-.4-8.4,2.1-10.6,6.2-2,3.9-.3,9.9,3,12.8,3.8,3.3,8,2.9,12.2,1.2,1.3-.5,3.6-1.1,2.3-3.5-1.1-1.9-2.4-1.4-4.2-.6Z"/>
    <path class="cls-1" d="M640.6,490.5c-3-2.7-2.8-9.3-9.5-6.8,2.4,5.7,8.3,10.1,7.1,17.2-.3,2,.2,3.1,2.6,3.1,2.9,0,2.3-1.9,2.2-3.4-.4-3.4.8-6.2,2.7-8.9,1.8-2.5,3.3-5.3,5-8-6.9-2.5-6.5,5-10,6.8Z"/>
    <path class="cls-1" d="M800.7,499.8c-1.2,0-2.4-.1-3.5,0-3.4.5-4.4-.9-4.1-4.2.3-3.3,0-6.7.1-10.1,0-1.7-.7-2.4-2.4-2.4-1.9,0-2.3.8-2.2,2.4,0,2.5,0,5,0,7.5q0,11.1,11.3,10.8c.3,0,.7,0,1,0,1.3,0,2.8.3,2.8-1.9,0-2.2-1.3-2.4-3-2.3Z"/>
    <path class="cls-1" d="M783.4,493.9c0-2.9,0-5.7,0-8.6,0-1.4-.5-2.2-2-2.3-1.7,0-2.4.7-2.4,2.4,0,5.4,0,10.8,0,16.1,0,1.6.4,2.6,2.3,2.5,1.8,0,2.2-1.1,2.2-2.6,0-2.5,0-5,0-7.6Z"/>
  </g>
</svg>