<?xml version="1.0" encoding="utf-8"?>
<!-- Generator: Adobe Illustrator 22.1.0, SVG Export Plug-In . SVG Version: 6.00 Build 0)  -->
<svg version="1.1" id="Layer_1" xmlns="http://www.w3.org/2000/svg" xmlns:xlink="http://www.w3.org/1999/xlink" x="0px" y="0px"
	 viewBox="0 0 409.5 117" style="enable-background:new 0 0 409.5 117;" xml:space="preserve">
<style type="text/css">
	.st0{fill:#110D0E;}
	.st1{fill:#FDFDFC;}
	.st2{fill:#D3423D;}
	.st3{fill:#214594;}
	.st4{fill:#F6E332;}
	.st5{fill:#244593;}
	.st6{fill:#D6423D;}
	.st7{fill:#254592;}
	.st8{fill:#244592;}
	.st9{fill:#D3413D;}
	.st10{fill:#D4423D;}
	.st11{fill:#D1403C;}
	.st12{fill:#274490;}
	.st13{fill:#1D1514;}
	.st14{fill:#D6433F;}
	.st15{fill:#12142B;}
	.st16{fill:#270E10;}
	.st17{fill:#86875F;}
	.st18{fill:#FDFDFE;}
	.st19{fill:#232424;}
	.st20{fill:#FFFFFF;}
</style>
<g>
	<g id="iegsYy.tif_9_">
		<path class="st0" d="M5,112.1c-0.3-1.2-0.3-18.8-0.2-24.8c0.1-6.6,0.3-13.1,0.3-19.7c0-3.6-0.3-7.1-0.3-10.7
			c0.1-11.6,0.2-23.3,0.3-35C5.2,16.6,5.3,11.3,5.4,6c0-1.7,0.2-1.9,2.2-1.9c6.6,0,13.3,0.1,19.9,0.1c8.7,0,17.4,0.1,26.1,0.1
			c9.1,0,18.1,0,27.2,0.1C87,4.5,93.2,4.9,99.3,4.9c8.4,0.1,16.8,0.6,25.3,0.7c4.7,0,9.4-0.1,14,0c3,0,5.9,0.2,8.9,0.3
			c1.2,0,1.5,5.8,1.5,6.8c-0.3,5.4-0.6,4.9-0.7,10.3c-0.1,5.6,0,11.2-0.1,16.8c0,5.4-0.2,10.7-0.2,16.1c0,2.6,0.1,5.3,0,7.9
			c-0.2,5.3-0.6,10.6-0.8,16c-0.1,3.4-0.1,6.8-0.1,10.3c0,6.3,0.7,21.1-0.2,21.3c-1.5,0.2-14.4,0.5-19.7,0.6
			c-7.8,0.1-15.6,0.2-23.3,0.4c-3.1,0.1-6.1,0.4-9.2,0.5c-4.1,0.1-8.3,0.2-12.4,0.2c-6.9-0.1-13.7-0.5-20.6-0.5
			c-5.9-0.1-11.7,0.1-17.6,0.2c-4.5,0-8.9,0.1-13.4,0.1c-4,0.1-8,0.3-12,0.2C13.9,112.8,5.1,113.7,5,112.1z"/>
		<path class="st1" d="M17.8,103.5c0.7-0.7,1.4-1.4,2.1-2C25.4,97.8,31,94,36.5,90.3c3.9-2.6,7.7-5.2,11.6-7.6
			c1.4-0.8,2.8-1.4,4.3-1.9c1-0.4,1.4,0.2,1.9,1c1.9,3.4,3.8,6.7,6,10c1.9,2.8,3.8,3.5,6.6,2.1c5.9-3,11.8-5.9,17.7-8.9
			c5-2.5,9.9-5.1,15-7.4c5.2-2.3,10.6-4.2,15.9-6.3c0.4-0.1,0.7-0.2,1.1-0.3c1.9-0.7,4-0.2,5.5,1.1c4.5,3.9,9.4,7.4,13.9,11.3
			c2,1.9,3.8,4,5.2,6.3c0.5,1.1,0.8,2.3,0.8,3.5c0.3,2.9,0.5,5.8,0.5,8.7c-2.2-0.9-4.2-2.4-5.7-4.3c-1.4-1.8-2.9-3.6-4.3-5.3
			c-0.9-1.4-2.6-2.2-4.3-1.8c-1.7,0.4-3,1.9-3.1,3.7c-0.2,1.4-0.3,2.9-0.6,4.3c-0.1,0.8-0.4,1.5-1,2c-0.8,0.2-1.7,0.1-2.4-0.5
			c-0.7-0.9-1.2-1.9-1.3-3c-0.2-2.1-0.8-4.1-1.8-5.9c-1.7-2.5-4.7-2.5-6,0.3c-0.9,2.1-1.6,4.3-2.2,6.5c-0.3,0.8-0.5,1.6-0.7,2.4
			c-0.3,1.1-1,2.1-2.2,2c-1.2-0.1-2.5-0.5-2.6-2.2c-0.1-1.9-0.6-3.9-0.6-5.8c0-2-0.6-4-1.7-5.8c-1.2-1.5-3.4-1.9-5-0.9
			c-4,2.2-8,4.4-11.9,6.8c-6.4,4-12.7,7.9-20.2,9.6c-0.7,0.2-1.4,0.3-2.1,0.3c-2.3,0.2-2.8-0.3-3.6-2.4c-0.7-1.6-1.5-3.2-2.6-4.6
			C55.4,95.6,53,95,51,96c-4.1,1.6-7.8,4.1-10.7,7.4c-0.6,0.6-1.5,0.8-2.3,0.7c-0.9-0.4-1.3-1.4-0.9-2.3c0-0.1,0-0.1,0.1-0.1
			c0.1-0.4,0.3-0.7,0.5-1c0.7-0.7,0.7-1.9,0.1-2.6c-0.7-1-2-1.3-3.1-0.8c-1.1,0.6-2.2,1.2-3.3,1.9c-2.4,1.5-4.9,3-7.3,4.4
			c-1.4,1-3.3,1.3-4.9,0.8C18.6,104,18.2,103.8,17.8,103.5z"/>
		<path class="st2" d="M143.9,27.3c-0.2,2.5-0.4,4.9-0.5,7.4c-0.1,2.9,0.1,5.8,0.1,8.7c0,2.3-0.3,4.5-0.4,6.8c-0.6,0.6-1.4,1-2.2,1
			c-11.4,2.7-22.8,5.3-34.2,8c-1.6,0.5-3.3,0.8-5,0.9c-0.7-0.2-1.3-0.6-1.7-1.2c-1.6-1.9-1.4-2.6,0.8-3.7c2.9-1.5,5.9-2.7,8.9-4
			c-3.4,1.1-6.7,2.4-10.1,3.5c-2.1,0.7-3.1,0.2-4-1.9c1-1.5,2.6-1.9,4.1-2.7c10-5.4,20.2-10.4,30.2-15.8c4.3-2.3,8.8-4.4,13-6.9
			C143.1,27.2,143.6,27.1,143.9,27.3z"/>
		<path class="st3" d="M29.9,8.5c0.8,0,1.6-0.1,2.4-0.1c0.8,0,1.5,0.2,2.3,0.2c3.9,0,7.8,0,11.6,0.1c9.4,0.1,18.9,0.3,28.3,0.4
			c1.1,0,4.9,0.2,3.4,0.4c0.4,0.4,0.6,1,0.6,1.6c0,4.1,0.2,8.3-0.1,12.4c-0.3,0.9-1,1.5-2,1.6C73,26,69.6,27.3,66.4,29
			c-0.9,0.6-2.1,0.6-3.1,0c-2.1-1.4-4.4-2.6-6.8-3.4c-2.7-1.1-2.8-2.1-0.5-3.8c1.7-1.2,3.7-2,4.7-4c0.1-0.1,0.1-0.3,0-0.4
			c-0.1,0-0.3,0-0.4,0c-0.2,0.1-0.4,0.3-0.5,0.4c-1.3,1.6-2.8,3-4.4,4.3c-0.9,1-2.4,1.1-3.5,0.3c-0.6-0.5-1.5-0.6-2.1,0
			c-0.4,3.3-0.4,3.4-2.8,3.6c-2.2-1.4-3.8-3.5-5.6-5.3c-0.5-0.5-1-1-1.6-1.4c-2.7-3.2-5.8-5.9-8.8-8.8C30.5,9.8,29.7,9.5,29.9,8.5z"
			/>
		<path class="st4" d="M95.7,52.8c1.6,2.3,1.7,2.3,4.2,1.4c3.2-1.2,6.3-2.3,9.5-3.4c0.6-0.2,1.2-0.3,1.8-0.3l0.2,0.5l-12.5,5.7
			l2.5,3.3c0.1,0,0.2,0.1,0.3,0.2c0.9,2.4,2.9,2.4,5,2.1c3.4-0.4,6.7-0.5,10.1-0.8c0.8-0.1,1.6-0.2,2,0.8c-0.4,1.2-1.4,1.3-2.4,1.5
			c-3.2,0.7-6.4,1.7-9.7,2.3c-1.3,0-2.4,1.1-2.4,2.4c-2,1-4,2.1-6,3.1C93.1,73.8,88,76.1,83,78.6c-6.2,3.1-12.3,6.3-18.4,9.4
			c-0.2,0.1-0.4,0.1-0.7,0.2c-1.6-2.3-3.1-4.7-4.8-7c-1-1.2-2.1-2.4-3.2-3.4c-1.1-0.9-2.6-1.2-3.9-0.7c-0.7-1.5-1.7-1.6-3.2-1.4
			c-1.8,0.3-3.5,1-5.4,0.3c-0.5-0.6,0-0.9,0.4-1.3c0.3-0.3,0.6-0.5,1-0.6c4.7-2,8.7-5.2,13.2-7.6c4.7-2.4,5.1-2.6,6.7,2.7
			c0.7,2.4,1.2,4.8,1.6,7.3c0.5,2.8,1.4,3.2,4.2,2.4c2.3-0.7,4.6-1.6,6.7-2.7c4.3-2.1,8.4-4.7,12.9-6.2c1.5-0.5,1-1.6,0.4-2.5
			c-1.7-2.6-3.3-5.3-4.8-8c-0.3-0.5-0.6-1.1-0.8-1.7c-0.3-0.7-0.1-1.5,0.4-1.9c2.5-1.9,5.2-3.4,8.1-4.6c0.2-0.1,0.5-0.1,0.8,0
			C94.9,51.3,95.5,52,95.7,52.8z"/>
		<path class="st5" d="M9.4,48.9c-0.2-0.8-0.3-1.6-0.4-2.4c0.2-5.3,0.4-10.6,0.6-15.9c0-1.5-0.1-2.9-0.1-4.4c0.1-0.7,0.2-1.4,0.3-2
			c0.5-0.2,1-0.1,1.5,0.2c2.7,1.5,5.6,2.5,7.9,4.7c1,2.2,3.1,2.9,5.3,3.3c0.9,0.1,1.8,0.3,2.6,0.6c2.5,1.2,5,2.6,7.3,4.1
			c0.7,0.9,0.2,2.1,0.9,3.1c0.8-0.6,1.8-1,2.8-1c1.9,0.9,4.1,1.6,5.5,3.3c-1.2,2.2-3.1,4-5.4,4.9c-1.3-0.4-2.6-0.8-3.8-1.4
			c1,1,2.2,1.1,3,1.8c0,1.6-1.5,2.2-2.3,3.3c-0.8,1.4-2,2.5-3.4,3.3c-2.6-0.2-5.2-0.8-7.7-1.5c-4.3-1-8.7-2-13-3.2
			C10.4,49.6,9.8,49.3,9.4,48.9z"/>
		<path class="st6" d="M19,29.1l-9.2-4.9c-0.2-0.5-0.3-1.1-0.3-1.7c0-4.7,0-9.4,0-14.2c0.2-0.1,0.4-0.2,0.7-0.2
			c5.7,0,11.3-0.1,17-0.1c0.9,0.1,1.9,0.2,2.8,0.5c3,3,6.1,6,9.1,9c0.4,0.4,0.7,0.8,1.1,1.3c0,0.8,0.7,1.4,1.4,1.4l5.5,5.4
			c0.1,0.2,0.1,0.4,0,0.6c-0.2,0.2-0.4,0.4-0.7,0.5c-2.8,0.6-5.4,2.1-8.3,2.7c-0.8-0.1-1.6,0.1-2.3,0.4c-0.3,0.1-0.7,0.1-1.1,0.2
			c-0.5,0-1.1,0.1-1.6,0.2c-0.3,0.1-0.6,0.1-0.9,0.1c-0.2,0-0.4-0.1-0.6-0.2c-2.7-2.5-5.7-2.5-8.9-1.2C21.6,29.3,20.3,30,19,29.1z"
			/>
		<path class="st7" d="M104.2,68.4l-0.7-2.2l15.1-3.7l-0.1-0.6l-15.9,1.2l-1.3-3.2l41.7-9.7c0,2.8,0,5.5-0.1,8.3
			c-0.1,3.3-0.3,6.7-0.5,10c-0.6,0.5-1.3,0.8-2.1,0.7c-4,0-8,0-12,0c-0.8,0-1.5-0.2-2.2-0.6c-1.2-0.6-2.4-1.4-3.4-2.3
			c-0.6-0.8-1.6-1.2-2.6-1.2c-4.5,0-8.9,0.9-13.1,2.6C106.2,68,105.2,68.2,104.2,68.4z"/>
		<path class="st8" d="M95.7,52.8l-1.8-1.3c0.7-0.9,1.6-1.7,2.7-2.1c7.7-4,15.1-8.8,22.8-12.9c4.1-2,8.4-3.8,12.7-5.2
			c0.8-0.1,1.4-0.5,1.9-1.1c-1.7-2.3-3.8-4.3-6.2-5.8c-2.4-1.7-5.1-2.8-8-3.4c-1.2,0-2.3-0.5-3.1-1.3c0-0.1,0-0.1,0-0.2
			c2-3.1,4.5-7.2,7.7-9.1c4.7,0.1,9.3,0.3,14,0.4c1.6,0.1,3.2,0.2,4.9,0.3c0.7,5.4,1,10.8,0.8,16.2c-1.6,1-3.2,2-4.9,2.9
			c-11,5.7-22,11.5-33,17.2C102.5,49.1,99.1,51,95.7,52.8z"/>
		<path class="st9" d="M124.3,10.3c-2.5,2.5-5.1,6.6-7.6,9.1c-0.5,0.7-1.4,1-2.2,0.6c-4.2-0.6-8.5-0.8-12.7-0.5
			c-3.5,0-6.9,1.1-10.4,1.7c-4,0.7-7.9,1.6-11.7,2.9c-0.5,0.2-1.1,0.5-1.5-0.1c0-4.8-0.1-9.7-0.1-14.5c0.5-0.1,1-0.1,1.5,0
			c4.6,0.3,9.2,0.2,13.8,0.5c4.3,0.2,8.6,0,12.9,0.2c2,0.1,4-0.2,5.9-0.1C116.2,10.2,120.2,9.9,124.3,10.3z"/>
		<path class="st10" d="M9.4,48.9l22.5,5.3c-0.1,1.5-1.2,2.5-2,3.6c-1.9,2.7-3.5,5.6-5,8.5c-0.3,1.1-1.1,1.9-2.1,2.3
			c-3.8,0.3-7.7,0.1-11.5,0.1c-0.7,0.1-1.4-0.2-1.9-0.7c0-2.1,0-4.2,0-6.3C9.4,57.4,9.4,53.2,9.4,48.9z"/>
		<path class="st5" d="M9.5,68l14.1-0.1c0.8,1,0.4,2.1,0.2,3.1c-0.7,2.8-1.1,5.8-1.3,8.7c-0.1,2.4,0.5,4.8,1.6,7
			c-0.2,0.8-0.9,1.3-1.7,1.4c-3.7,1.1-7.3,2.3-10.9,3.5C10.7,92,9.9,92,9.1,91.7c0-5.7,0-11.5,0.1-17.2C9.2,72.3,9.4,70.2,9.5,68z"
			/>
		<path class="st10" d="M9.1,91.7L24,87c0.6-0.6,1.3-0.9,2.2-1c5-1.9,10.1-3.3,15.1-4.9c0.7-0.4,1.5-0.4,2.2,0
			c-1.8,1.4-3.7,2.8-5.5,4.1c-3.9,2.8-7.8,5.7-11.7,8.5c-4,2.9-8.1,5.7-12,8.6c-1.7,1.3-3.3,2.7-5.1,4.3V91.7z"/>
		<path class="st11" d="M126.2,68.6l16.2-0.1c0.1,2,0.3,3.9,0.3,5.9c0,2.3-0.1,4.7-0.2,7c-0.1,0.4-0.2,0.7-0.3,1
			c-1.4-1.3-2.6-2.6-4-3.6c-3-2.3-6.1-4.5-9-6.9C128.1,70.9,127.1,69.7,126.2,68.6z"/>
		<path class="st12" d="M43.5,81.2c-2.5,0.7-5,1.3-7.5,2.1c-3.3,1-6.6,2.1-9.9,3.1c-0.1-0.8,0.3-1.6,1-1.9c4.7-3,9.6-5.9,14.6-8.5
			c0.4-0.2,0.9-0.2,1.3,0l8.5-1.2l0.4,2.3L43.5,81.2z"/>
		<path class="st13" d="M43,76c-2.4,1.3-4.8,2.5-7.1,3.8c-2.6,1.5-5.2,3-7.8,4.6c-0.7,0.6-1.4,1.2-1.9,2L24,87
			c-2.9-3.3-2.1-7.3-1.8-11.1c0.2-2.7,0.9-5.3,1.3-8c1.4-2.5,2.7-5,4.1-7.4c1.3-2.2,2.8-4.2,4.2-6.4l5.5-6.3c0-0.5,0.3-0.8,0.8-0.8
			c0,0,0.1,0,0.1,0l5.3-4.7c0.4-0.8,1-1.4,1.7-1.7c0.8-0.5,1.6-1.1,2.3-1.7c1.5-0.8,2.1-2.6,1.6-4.2c-0.3-1.6-0.2-3.3,0.2-4.9
			c0.3-1.9-0.3-2.4-2.1-1.7c-2.4,0.9-4.8,1.5-7.2,2.5c-1.8,0.6-3.7,0.9-5.6,1c-1.6,0.2-2.3-0.6-2-1.9l0.8-0.2c0.5,0.1,1,0,1.5-0.1
			l1.1-0.2c0.6,0,1.2-0.1,1.8-0.2l8.9-2.9l0.2,0.1l0.1-0.2l0.2-0.4l2.7-0.8l-0.8-2.4c0.6-1,1.9-1.3,2.9-0.8c0.2,0.1,0.3,0.2,0.4,0.4
			c0.6,0.7,1.6,0.8,2.3,0.2c0.1-0.1,0.1-0.1,0.2-0.2c1.8-1.6,3.6-3.2,5.4-4.8c0-0.1,0.1-0.2,0.3-0.2l0.8-0.1
			c0.3,0.1,0.4,0.3,0.4,0.6c0,0,0,0,0,0.1c-1.2,2.6-3.7,3.6-5.8,5.1c-0.4,0.3-0.7,0.7-1.4,1.3c1,0.5,1.7,0.9,2.5,1.3
			c2.3,1.2,4.6,2.4,6.9,3.6c0.5,0.3,1.1,0.4,1.7,0.3c4.3-1.6,8.5-3.4,12.7-5c3.1-0.8,6.2-1.8,9.4-2.5c3.9-0.8,7.7-1.6,11.6-2.1
			c3.7-0.4,7.4-0.5,11.2-0.5c1.5,0.1,3,0.3,4.5,0.6c0.6,0,1.2,0,1.8-0.1c1,0.5,2.1,0.9,3.2,1.1c5.9,0.9,10.1,4.6,14.1,8.5
			c0.2,0.2,0.4,0.5,0.6,0.8c0.1,0.2,0.2,0.4,0.5,0.9c-1.1,0.4-2.2,0.9-3.2,1.2c-7.1,2.5-14,5.7-20.5,9.6c-4,2.3-7.9,4.6-11.9,6.9
			c-1.8,1-3.7,2.1-5.5,3.1l-9.4,5.2L92,69.5c-0.9,0.4-1.6,0.8-2.4,1.1c-1.3,0.6-2.7,1.1-4,1.8c-3.9,1.9-7.7,3.9-11.6,5.8
			c-1.7,0.8-3.5,1.4-5.4,1.8c-1.1,0.3-2.2-0.3-2.5-1.4c0-0.1-0.1-0.3-0.1-0.4c-0.6-2.4-1-4.7-1.6-7.1c-0.5-2-1.1-3.9-1.8-6.2
			c-1.8,0.8-3.3,1.5-4.8,2.2c-1.4,0.7-2.8,1.5-4.1,2.4c-0.7,0.5-1.3,1.1-2,1.6c-1.7,1-3.5,1.8-5.2,2.7C45.2,74.5,44.1,75.3,43,76z"
			/>
		<path class="st14" d="M41.6,20.2l-1.9,0.5l0.4-1.9L41.6,20.2z"/>
		<path class="st15" d="M61.5,17.4l-0.4-0.7l0.7,0.4L61.5,17.4z"/>
		<path class="st15" d="M60.4,16.9c-0.1,0.1-0.2,0.2-0.3,0.2L60.4,16.9z"/>
		<path class="st11" d="M32.4,29.8l-0.2,1.1c2.8,0.5,5.6,0.1,8.2-0.9c2.5-0.8,4.9-1.8,7.4-2.7c0.5-0.1,1.1-0.1,1.6,0
			c0.2,0.9,0.3,1.9,0.2,2.9c-0.6,2.4-0.4,5,0.5,7.3l-6.7,5l-5.5-3c-0.1-0.9,0.7-1.1,1.2-1.6c1.7-1.5,2.2-3.9,1.3-6
			C39,32.4,37.5,33.1,36,34c-1.2,0.7-0.9,2.3-1.8,3.2l-7.5-4.1c0-0.4,0.3-0.7,0.7-0.8c1.7-0.4,3.2-1.3,4.4-2.4L32.4,29.8z"/>
		<path class="st16" d="M31.9,29.8c-0.6,1.3-1.8,2.2-3.2,2.6l-1.9,0.7c-2.4-0.3-4.8-0.6-6.9-2.2c-0.7-0.3-1-1.1-0.9-1.8
			c1.3-0.2,2.6-0.4,3.8-0.7c2.3-1.1,5-1.1,7.3,0C30.7,28.8,31.3,29.3,31.9,29.8z"/>
		<path class="st16" d="M34.2,37.2c-0.1-2.2,1.3-4.1,3.4-4.6c1.1-0.4,2.1-1,3.2-1.6c1.4,2.4,0.8,5.5-1.4,7.3c-0.4,0.3-0.9,0.7-1.3,1
			l-3.3,1.8L34.2,37.2z"/>
		<path class="st17" d="M38.3,47.1l-0.9,0.8l-4.1-1.8l0.1-0.5C35.2,45.3,36.6,46.6,38.3,47.1z"/>
		<path class="st16" d="M34.7,25c-0.4-0.4-0.7-0.8-1.1-1.2c-1-1-2-1.9-2.9-2.9c0-0.2,0-0.5,0.2-0.7l0,0c0.4-0.1,0.8-0.2,1.1-0.4
			l2.8-0.5c0.2,0.1,0.5,0.2,0.7,0.2c1.2,0.9,2.5,1.8,3.6,2.8c0.3,0.4,0.6,0.9,0.7,1.4c0,0.4,0.1,0.8,0.2,1.2
			c-0.2,0.9,0.9,2.3-0.5,2.7c-0.9,0.2-2-0.6-3-1c-0.4-0.3-0.8-0.6-1.2-0.9c0-0.1-0.2-0.2-0.3-0.3l-0.1-0.1l0-0.2L34.7,25z"/>
		<path class="st11" d="M37.7,29l-1.8,0.2L37.7,29z"/>
		<path class="st11" d="M35.5,19.5l-0.7-0.2L35.5,19.5z"/>
		<path class="st11" d="M34.8,29.4l-1.5,0.1L34.8,29.4z"/>
		<path class="st11" d="M32,19.8l-1.1,0.4L32,19.8z"/>
		<path class="st11" d="M40,24.8l-0.2-1.2L40,24.8z"/>
		<path class="st11" d="M30.8,20.2l-0.2,0.7L30.8,20.2z"/>
		<path class="st11" d="M35,25.3l0.3,0.3L35,25.3z"/>
		<path class="st11" d="M46.9,26l-0.2,0.1C46.7,26,46.8,26,46.9,26z"/>
		<path class="st11" d="M34.7,25l0.2,0.2C34.8,25.1,34.8,25.1,34.7,25z"/>
		<path class="st18" d="M87,69.4l-16.4,6.9c-1.2-5.6-2.2-11.1-5.4-15.9c-14.4,5-26.3,13.7-38.8,21.5c-1.1-1.9-0.1-3.8,0-5.6
			c0.4-6.5,3.7-11.7,7.4-16.8c4.2-5.6,9.1-10.7,14.4-15.2c1.5-1.3,2.9-2.8,4.4-4.3c0.8-0.8,1.1-2,0.9-3.2c-0.2-2.2-0.3-4.4-0.4-6.6
			c-0.1-1.2,0-2.5,0-4.1c3.6,2.4,8.1,3.1,9.9,7.6c0.9-0.1,1.9-0.4,2.8-0.7c7.2-3.1,14.6-5.6,22.1-7.6c7.5-2.2,15.2-3.2,23-3
			c6.3,0.2,11.6,3.1,16.9,6.6c-2,0.9-3.8,1.7-5.6,2.4c-8.1,3.2-15.8,7.3-23,12.3c-5.5,3.8-11.7,6.4-17.8,9.1
			c-1.6,0.7-1.9,1.2-1.1,2.8C82.5,60.2,84.7,64.8,87,69.4z"/>
		<path class="st19" d="M55,33.3c-0.1-1,0.6-1.9,1.6-2c0.1,0,0.3,0,0.4,0c1.2,0.2,2.2,1,2.5,2.2c-0.2,1.3-1.2,2.4-2.4,2.7
			C56.1,36.3,55.1,34.7,55,33.3z"/>
	</g>
	<g>
		<path class="st20" d="M161.6,14.5H173v11.6h-0.7c-0.7-1.8-1.9-2.9-3.8-3.3c-0.8-0.2-1.5-0.2-2.1-0.2c-1,0-2.7,0-5.1,0l0-2.5l0.6,0
			c-0.4-0.6-0.6-1.1-0.6-1.5c0-0.4,0.3-1,0.9-1.7h-0.7V14.5z M163.3,16.9c-0.7,0.7-1.1,1.2-1.1,1.6c0,0.3,0.2,0.8,0.7,1.6
			c2.8-0.1,4.8,0,6,0.4c1.5,0.3,2.5,0.9,3,1.9c0.1-2.9-0.5-4.7-1.8-5.5H163.3z"/>
		<path class="st20" d="M174.9,8.3c0.5,3-0.3,4.4-2.3,4.4h-2.3c-0.8,0-1.3,0.1-1.6,0.4c-0.3,0.3-0.5,0.7-0.5,1.4h-0.5
			c-0.2-1.1-0.7-1.7-1.5-1.8h-3.8v-2.3h3.7c0.9,0,1.6,0.6,1.9,1.8c0.4-1.2,1.2-1.8,2.5-1.8h2.1c0.7,0,1.2-0.1,1.4-0.4
			c0.2-0.2,0.5-0.8,0.7-1.8H174.9z"/>
		<path class="st20" d="M176.3,14.5h10.4v2.3h-8.5c-1.1,1-1.2,2-0.3,3h3.6c2.2,0,3.7,0.9,4.4,2.8c0.8,1.9,1.1,5.3,1,10.4h-0.8
			c0-7-1.5-10.6-4.6-10.8h-5.3v-2.4h0.6c-0.8-1-0.7-2,0.3-3h-0.9V14.5z"/>
		<path class="st20" d="M189.1,14.5h2.3v4.9h-0.8c-0.2-1.2-0.8-1.9-1.7-2.3L189.1,14.5z"/>
		<path class="st20" d="M204.9,14.5v2.3h-5.4v3c3.7-0.2,5.5,2.6,5.4,8.3h-0.9c-0.2-4-1.7-5.9-4.6-5.9h-6.2l0-2.5h5.5
			c-0.2-1.3-0.6-2.2-1.4-3h-4v-2.3H204.9z"/>
		<path class="st20" d="M207.4,14.5h10.3v2.3h-8.3c-0.7,0.5-1,1-1.1,1.3c-0.1,0.3-0.1,0.8,0.2,1.5l5.1,0c3,0.1,4.6,2.1,4.8,5.9h-0.7
			c-0.6-2.4-2.1-3.6-4.4-3.6l-6,0v-2.2l0.5,0c-0.1-0.4-0.2-0.7-0.2-0.9c-0.1-0.2-0.1-0.5,0-0.6c0-0.3,0.3-0.8,0.7-1.3h-0.9
			L207.4,14.5z"/>
		<path class="st20" d="M220.2,14.5h2.3v4.9h-0.8c-0.2-1.2-0.8-1.9-1.7-2.3L220.2,14.5z"/>
		<path class="st20" d="M224.7,14.5H236v11.6h-0.7c-0.7-1.8-1.9-2.9-3.8-3.3c-0.8-0.2-1.5-0.2-2.1-0.2c-1,0-2.7,0-5.1,0l0-2.5l0.6,0
			c-0.4-0.6-0.6-1.1-0.6-1.5c0-0.4,0.3-1,0.9-1.7h-0.7V14.5z M226.3,16.9c-0.7,0.7-1.1,1.2-1.1,1.6c0,0.3,0.2,0.8,0.7,1.6
			c2.8-0.1,4.8,0,6,0.4c1.5,0.3,2.5,0.9,3,1.9c0.1-2.9-0.5-4.7-1.8-5.5H226.3z"/>
		<path class="st20" d="M238.4,14.5h8.9l0,0c-0.1-0.1-0.2-0.2-0.3-0.4l1.5-1.5c0.3,0.4,0.6,0.8,1,1.1c0.1,0.1,0.2,0.2,0.3,0.2
			c0.1,0,0.2-0.1,0.2-0.3c0.2-0.5,0.3-1.3,0.3-2.2c0-0.1,0.1-0.1,0.2-0.1c0.1,0,0.1,0.1,0.2,0.1c0.2,1.3,0.3,2.3,0.1,3
			c-0.1,0.8-0.4,1.5-0.9,2.1c-0.2,0.4-0.5,0.4-0.9,0l-0.7-0.8v1.1H245c0,0.8-0.1,1.4-0.3,2c1,0,1.7,0,2.2,0c0.5,0,1,0.1,1.5,0.1
			c1,0.2,1.6,0.8,1.8,1.7c0.2,1-0.1,2-0.9,3c-0.5,1.1-1.2,1.8-2.3,2.1c-0.5,0.2-1.1,0.2-1.6,0.2c-0.6,0-1.2-0.2-1.7-0.4
			c-1.3-0.5-3-1.7-5.3-3.6l1.2-2.1c0.3,0.2,1,0.8,2,1.6c0.8-0.4,1.5-1,1.9-1.9c0.2-0.4,0.3-0.8,0.4-1.3c0.1-0.4,0.1-0.9,0-1.4h-5.5
			V14.5z M244.5,19.6c-0.5,0.9-1.2,1.7-2.1,2.3c1.2,0.9,2.4,1.5,3.4,1.9c0.3,0.1,0.6,0.2,0.9,0.3c0.3,0,0.6,0.1,0.9,0
			c0.6-0.1,1-0.3,1-0.7c0.4-0.4,0.5-0.9,0.3-1.3c-0.1-0.4-0.5-0.6-1.1-0.7l-1.2-0.2c-0.6,0-1.3,0-2.1,0V19.6z"/>
		<path class="st20" d="M252.4,14.5h10.7v2.3H259l0,1.8c1.9,0.2,3.1,1.2,3.6,3c0.3,1.1,0.4,2.1,0.5,2.9l0.1,8.9h-0.9
			c-0.1-5.3-0.3-8.4-0.7-9.3c-0.7-1.8-1.5-2.8-2.3-3c0.5,2.5-0.5,3.8-2.8,3.9c-2.9,0.2-4.2-0.8-3.9-3c0-1.3,0.6-2.2,1.6-2.9
			c0.8-0.3,1.4-0.5,1.8-0.5c1-0.1,1.8-0.1,2.5,0c-0.1-0.6-0.4-1.2-0.9-1.7h-5V14.5z M256.3,20.7c-2.2-0.1-3.2,0.3-3.1,1.2
			c-0.1,0.7,1,1,3.1,1c1.5,0,2.2-0.6,2.2-1.9C257.9,20.8,257.2,20.7,256.3,20.7z"/>
		<path class="st20" d="M265.4,14.5h2.3v4.9h-0.8c-0.2-1.2-0.8-1.9-1.7-2.3L265.4,14.5z"/>
		<path class="st20" d="M277.4,14.5v2.3h-2c2.4,1.2,4,2.7,4.9,4.3c0-2.2-0.4-3.6-1.4-4.3v-2.3h2.3v19.8h-0.7
			c-0.5-1.8-1.2-2.9-2.1-3.3c-0.5-0.2-1.2-0.4-2-0.4c-0.8-0.1-1.9-0.1-3.2,0l0.2-2.4h2.5c-0.1-1.1-0.5-1.8-1.3-2.2h-3.1
			c-0.8,0.5-1.2,1.1-1.1,1.9c0,0.8,0.6,2,1.7,3.5l-1.9,1.1c-1-1.5-1.5-2.8-1.5-4c0.2-1.2,1-2.3,2.4-3.3v-1.6h5.5v4.6
			c1.7,0.1,2.9,0.5,3.6,1.4c0.2-1.6-0.3-2.8-1.6-3.4v-2.6h1c-1-1.9-3.2-3.6-6.6-5.1l0.9-1.8h-1.8c-0.9,0.7-1.2,1.5-1,2.3
			c2.8,0.4,4.3,1.8,4.4,4.2l-0.7-0.1c0-0.5-0.5-0.9-1.5-1.3c-0.9-0.3-2.3-0.4-4.2-0.2l0.4-2.5l0.6-0.1c-0.1-0.9,0.2-1.7,0.8-2.3
			h-1.4v-2.3H277.4z"/>
		<path class="st20" d="M283.1,8.3c0.5,3-0.3,4.4-2.3,4.4h-2.3c-0.8,0-1.3,0.1-1.6,0.4c-0.3,0.3-0.5,0.7-0.5,1.4h-0.5
			c-0.2-1.1-0.7-1.7-1.5-1.8h-3.8v-2.3h3.7c0.9,0,1.6,0.6,1.9,1.8c0.4-1.2,1.2-1.8,2.5-1.8h2.1c0.7,0,1.2-0.1,1.4-0.4
			c0.2-0.2,0.5-0.8,0.7-1.8H283.1z"/>
		<path class="st20" d="M284.7,14.5h11.4v11.6h-0.7c-0.7-1.8-1.9-2.9-3.8-3.3c-0.8-0.2-1.5-0.2-2.1-0.2c-1,0-2.7,0-5.1,0l0-2.5
			l0.6,0c-0.4-0.6-0.6-1.1-0.6-1.5c0-0.4,0.3-1,0.9-1.7h-0.7V14.5z M286.4,16.9c-0.7,0.7-1.1,1.2-1.1,1.6c0,0.3,0.2,0.8,0.7,1.6
			c2.8-0.1,4.8,0,6,0.4c1.5,0.3,2.5,0.9,3,1.9c0.1-2.9-0.5-4.7-1.8-5.5H286.4z"/>
		<path class="st20" d="M298.5,14.5h2.3v4.9h-0.8c-0.2-1.2-0.8-1.9-1.7-2.3L298.5,14.5z"/>
		<path class="st20" d="M309.2,14.5v2.3h-5c-1,1.1-1,2-0.1,2.7c0.7,0,1.4-0.1,2,0c0.5,0,1.1,0,1.6,0.1c1.2-0.6,2.5-1.4,3.8-2.3v-2.8
			h2.7v10h0v4.8h-0.7c-0.6-1.6-1.6-2.4-3-2.6c-0.6-0.1-1.7-0.3-3.3-0.4c-1.6-0.1-2.6-0.2-3.1-0.2c-0.4,0-0.9,0.1-1.4,0.1l0.1-2.3
			c0.9-0.1,2.7,0,5.3,0.1c2.7,0.1,4.4,0.8,5.2,1.9l0-1.4c-0.5-0.8-1.8-1.5-4-2.3c-0.8-0.2-1.6-0.4-2.3-0.4c-1.1-0.1-2.6,0-4.4,0.1
			l0.2-2.2c0.1,0,0.3,0,0.6,0c-0.9-0.6-0.9-1.6,0-2.8h-0.5v-2.3H309.2z M304.6,28.4c2.2,2,3.9,3.2,5.1,3.6c1.7,0.7,2.8,0.8,3.3,0.2
			c0.4-0.6-0.2-1-1.8-1.2l1-1.9c1.3,0.2,2.2,0.7,2.5,1.4c0.3,0.8,0,1.5-1,2.4c-1,0.8-1.9,1.3-2.7,1.4c-0.9,0.2-1.8,0-2.7-0.4
			c-0.9-0.4-2.6-1.6-5.3-3.8L304.6,28.4z M312.1,17.8c-1.4,0.9-2.5,1.5-3.4,1.9c1.7,0.3,3.4,1.1,4.9,2.3
			C313.6,20,313.1,18.6,312.1,17.8z"/>
		<path class="st20" d="M317.3,14.5h11.6v18.6h-1.1l-0.2-14.2c-0.3-1.2-0.8-1.9-1.4-2h-2l0.1,7.3l-0.9,0c-0.1-0.5-0.4-0.9-0.8-1.1
			s-1.2-0.3-2.4-0.3c-1.1,0-2.1,0-2.9,0l0-2.1l0.6,0c-0.2-1.1-0.2-1.9-0.2-2.3c0-0.4,0.2-0.9,0.6-1.5h-1.1V14.5z M319.3,16.9
			c-0.5,0.6-0.7,1.1-0.7,1.5c-0.1,0.4,0,1.2,0.3,2.3c2.2-0.1,3.7,0.1,4.4,0.5c0-2.4-0.4-3.9-1.3-4.4H319.3z"/>
		<path class="st20" d="M331.1,14.5h2.3v4.9h-0.8c-0.2-1.2-0.8-1.9-1.7-2.3L331.1,14.5z"/>
		<path class="st20" d="M335.4,14.5h8.9l0,0c-0.1-0.1-0.2-0.2-0.3-0.4l1.5-1.5c0.3,0.4,0.6,0.8,1,1.1c0.1,0.1,0.2,0.2,0.3,0.2
			c0.1,0,0.2-0.1,0.2-0.3c0.2-0.5,0.3-1.3,0.3-2.2c0-0.1,0.1-0.1,0.2-0.1c0.1,0,0.1,0.1,0.2,0.1c0.2,1.3,0.3,2.3,0.1,3
			c-0.1,0.8-0.4,1.5-0.9,2.1c-0.2,0.4-0.5,0.4-0.9,0c-0.3-0.3-0.5-0.5-0.7-0.8v1.1h-3.7c0.1,0.4,0.1,0.9,0.1,1.4
			c0,0.5-0.1,1-0.2,1.6c0.6-0.9,1.4-1.3,2.5-1.3c2,0,3.1,1.2,3.1,3.5c-0.1,2-1.1,3.1-3.1,3.2c-1.2,0-2.2-0.6-2.9-1.9
			c-0.6,1.2-1.5,1.9-2.6,1.9c-2-0.2-3-1.3-3.2-3.3c0.1-2.3,1.1-3.4,3.1-3.5c0.9,0,1.8,0.4,2.5,1.2c-0.2-1.4-0.5-2.3-0.9-2.9h-4.7
			V14.5z M338.5,20.7c-1.2,0.1-2,0.6-2.3,1.4c0.2,0.7,1,1.1,2.4,1.2c1.4-0.1,2.1-0.5,2.3-1.1C340.6,21.2,339.8,20.8,338.5,20.7z
			 M343.8,20.7c-1.2,0.1-2,0.5-2.2,1.3c0.2,0.7,0.9,1.1,2.3,1.1c1.5,0,2.3-0.4,2.5-1C346,21.3,345.2,20.8,343.8,20.7z"/>
		<path class="st20" d="M346.6,8.3c0.5,3-0.3,4.4-2.3,4.5l-1.4,0c-0.8,0-1.3,0.1-1.6,0.4c-0.3,0.3-0.5,0.7-0.5,1.4h-0.5
			c-0.2-1.1-0.7-1.7-1.5-1.8h-3.8v-2.3h3.7c0.9,0,1.6,0.6,1.9,1.8c0.4-1.2,1.2-1.8,2.5-1.8l1.3,0c0.7,0,1.2-0.1,1.4-0.4
			c0.2-0.2,0.5-0.8,0.7-1.8H346.6z"/>
		<path class="st20" d="M350.3,14.5h11.6v18.6h-1.1l-0.2-14.2c-0.3-1.2-0.8-1.9-1.4-2h-2l0.1,7.3l-0.9,0c-0.1-0.5-0.4-0.9-0.8-1.1
			c-0.4-0.2-1.2-0.3-2.4-0.3c-1.1,0-2.1,0-2.9,0l0-2.1l0.6,0c-0.2-1.1-0.2-1.9-0.2-2.3c0-0.4,0.2-0.9,0.6-1.5h-1.1V14.5z
			 M352.3,16.9c-0.5,0.6-0.7,1.1-0.7,1.5c-0.1,0.4,0,1.2,0.3,2.3c2.2-0.1,3.7,0.1,4.4,0.5c0-2.4-0.4-3.9-1.3-4.4H352.3z"/>
		<path class="st20" d="M371.3,14.5v2.3h-1.3c2.2,1.2,3.8,2.7,4.7,4.3c0-2.2-0.4-3.6-1.4-4.3v-2.3h2.3v12.1l-0.8,0
			c-0.8-3.6-3.1-6.2-7.1-8l1-1.8h-1.5c-0.9,0.7-1.4,1.3-1.5,1.7c-0.1,0.4,0,0.9,0.5,1.5c2.6-0.2,4,1.7,4.4,5.5l-0.7-0.1
			c-0.2-1.4-0.8-2.3-1.8-2.7c-0.7-0.3-1.9-0.4-3.8-0.2l0.4-2.5l0.7-0.1c-0.3-0.7-0.4-1.2-0.3-1.6c0.1-0.4,0.5-1,1.2-1.6h-1.4v-2.3
			H371.3z"/>
		<path class="st20" d="M378.5,14.5h2.3v4.9H380c-0.2-1.2-0.8-1.9-1.7-2.3L378.5,14.5z"/>
		<path class="st20" d="M383,14.5h6.4v2.3h-4.7c-0.7,0.7-1.1,1.2-1.1,1.6c0,0.3,0.2,0.8,0.7,1.6c2.4-0.1,4.3,0,5.6,0.4
			c1.3,0.3,2.5,1,3.4,2c0.1-2.9-0.4-4.8-1.7-5.6v-2.3h2.8v11.6h-0.8c-0.6-2-1.8-3.1-3.5-3.4c-0.9-0.2-1.8-0.2-2.6-0.3
			c-0.9,0-2.4,0-4.7,0.1l0.2-2.5l0.4,0c-0.4-0.6-0.5-1.1-0.5-1.5c0-0.4,0.3-1,0.8-1.7h-0.6L383,14.5z"/>
		<path class="st20" d="M399.3,14.5v20.1h-0.7c0-6.7-0.2-11.2-0.5-13.5c-0.3-2.3-0.9-3.7-1.8-4.2l0.5-2.3H399.3z"/>
	</g>
	<g>
		<path class="st20" d="M158.3,58.7l4.8-2.4c1,1.8,2.6,3.4,4.7,3.4c1.7,0,2.5-0.8,2.5-2.1c0-1.6-1.8-2.3-3.9-3.2
			c-3.2-1.3-7.2-2.8-7.2-7.8c0-4.2,3.4-7,8.1-7c4.3,0,6.9,2.3,8.5,5.5l-4.6,2.5c-1-2-2.3-3.1-4-3.1c-1.4,0-2.1,0.8-2.1,1.8
			c0,1.4,1.5,2.2,3.5,3.1c3.3,1.4,7.6,2.9,7.6,7.9c0,3.7-2.8,7.1-8.4,7.1C162.7,64.4,160,62,158.3,58.7z"/>
		<path class="st20" d="M182.3,45.1h-5.4v-5h16.9v5h-5.4V64h-6V45.1z"/>
		<path class="st20" d="M195.5,55.5V40.1h6v15.1c0,3,0.8,4.1,2.7,4.1s2.7-1.1,2.7-4.1V40.1h5.7v15.4c0,5.8-2.4,8.9-8.5,8.9
			S195.5,61.2,195.5,55.5z"/>
		<path class="st20" d="M215.7,40.1h6.7c6.3,0,11.3,2.2,11.3,11.8c0,9.8-5.1,12-11.3,12h-6.7V40.1z M222.9,59c3.8,0,4.8-1.7,4.8-7.1
			c0-5.1-1-6.8-4.8-6.8h-1.2V59H222.9z"/>
		<path class="st20" d="M236.3,40.1h14.4v5h-8.4v4.2h6V54h-6v5.1h8.8V64h-14.8V40.1z"/>
		<path class="st20" d="M253.5,40.1h6l4.5,8.8c0.7,1.4,1.1,2.1,1.9,4h0.1V40.1h5.4V64h-5.5l-5.3-9.7c-0.6-1.1-0.9-1.6-1.5-3.1H259
			V64h-5.4V40.1z"/>
		<path class="st20" d="M279,45.1h-5.4v-5h16.9v5H285V64h-6V45.1z"/>
		<path class="st20" d="M291,58.7l4.8-2.4c1,1.8,2.6,3.4,4.7,3.4c1.7,0,2.5-0.8,2.5-2.1c0-1.6-1.8-2.3-3.9-3.2
			c-3.2-1.3-7.2-2.8-7.2-7.8c0-4.2,3.4-7,8.1-7c4.3,0,6.9,2.3,8.5,5.5l-4.6,2.5c-1-2-2.3-3.1-4-3.1c-1.4,0-2.1,0.8-2.1,1.8
			c0,1.4,1.5,2.2,3.5,3.1c3.3,1.4,7.6,2.9,7.6,7.9c0,3.7-2.8,7.1-8.4,7.1C295.5,64.4,292.7,62,291,58.7z"/>
		<path class="st20" d="M319.2,40.1h14.1v5h-8.1V50h5.7v4.7h-5.7V64h-6V40.1z"/>
		<path class="st20" d="M334,52c0-8.8,4.6-12.4,9.9-12.4c5.2,0,9.9,3.6,9.9,12.4s-4.6,12.4-9.9,12.4C338.7,64.4,334,60.8,334,52z
			 M347.7,52c0-4.8-1.2-7.3-3.8-7.3S340,47.3,340,52c0,4.8,1.3,7.4,3.9,7.4S347.7,56.8,347.7,52z"/>
		<path class="st20" d="M356.3,40.1h7.8c5.2,0,8.5,2.1,8.5,7.9c0,3-1.4,5.2-3.6,6.3l4.3,9.7h-6.2l-3.7-8.1h-1.3V64h-5.8V40.1z
			 M363.9,51.3c2,0,3-0.9,3-3.2c0-2.3-1-3-3-3h-1.8v6.2H363.9z"/>
		<path class="st20" d="M386.4,64h-5.6l7-23.9h5.8l7,23.9h-6l-1-4h-6.1L386.4,64z M392,53.5c-0.6-2.4-1.1-3.9-1.4-6.1h-0.1
			c-0.4,2.2-0.9,3.7-1.5,6.1l-0.5,1.8h3.8L392,53.5z"/>
		<path class="st20" d="M160.2,72H182v7.8h-12.5v7.5h8.9v7.3h-8.9v14.3h-9.3V72z"/>
		<path class="st20" d="M185.2,72h12c8.1,0,13.2,3.3,13.2,12.2c0,4.6-2.1,8.1-5.6,9.8l6.7,15H202l-5.7-12.6h-2v12.6h-9V72z
			 M197,89.4c3.1,0,4.6-1.3,4.6-5c0-3.5-1.5-4.7-4.6-4.7h-2.7v9.7H197z"/>
		<path class="st20" d="M215.4,72h22.3v7.8h-13v6.4h9.3v7.3h-9.3v7.9h13.6v7.5h-22.9V72z"/>
		<path class="st20" d="M242,72h22.3v7.8h-13v6.4h9.3v7.3h-9.3v7.9h13.6v7.5H242V72z"/>
		<path class="st20" d="M285.2,79.8h-8.4V72h26.1v7.8h-8.4v29.1h-9.3V79.8z"/>
		<path class="st20" d="M306.4,72h9.3v36.9h-9.3V72z"/>
		<path class="st20" d="M321.3,72h13.5c5.7,0,11.9,1.3,11.9,9.2c0,5.5-3,7.7-6,8.5v0.1c3.9,0.8,6.8,2.8,6.8,9
			c0,7.9-6.6,10.1-12.4,10.1h-13.8V72z M334.2,86.9c2.7,0,3.9-1.1,3.9-3.7s-1.2-3.7-3.8-3.7h-3.9v7.4H334.2z M334.4,101.8
			c2.9,0,4.3-1.6,4.3-4.3c0-2.8-1.4-4.2-4.4-4.2h-3.9v8.5H334.4z"/>
		<path class="st20" d="M351.9,72h22.3v7.8h-13v6.4h9.3v7.3h-9.3v7.9h13.6v7.5h-22.9V72z"/>
		<path class="st20" d="M384.9,79.8h-8.4V72h26.1v7.8h-8.4v29.1h-9.3V79.8z"/>
	</g>
</g>
</svg>
